<svg width="1616" height="569" viewBox="0 0 1616 569" fill="none" xmlns="http://www.w3.org/2000/svg">
<path d="M1589.19 5.20651L1576.62 1M1589.19 5.20651H1551.94M1589.19 5.20651L1602.17 9.55193M1589.19 5.20651H1615.56M1576.62 1L1581.19 1.00164L1585.72 1.01075L1590.15 1.03636L1594.44 1.08679L1598.55 1.16864L1602.43 1.29184L1606.03 1.46298L1609.37 1.68122L1612.24 1.98301L1614.85 2.33273L1615.56 2.45522V5.20651M1576.62 1H1539.97M1539.97 1H1503.32M1539.97 1L1551.94 5.20651M1503.32 1H1466.67M1503.32 1L1514.69 5.20651M1466.67 1H1430.02M1466.67 1L1477.45 5.20651M1430.02 1H1393.38M1430.02 1L1440.2 5.20651M1393.38 1H1356.73M1393.38 1L1402.95 5.20651M1356.73 1H1320.08M1356.73 1L1365.7 5.20651M1320.08 1H1283.43M1320.08 1L1328.46 5.20651M1283.43 1H1246.78M1283.43 1L1291.21 5.20651M1246.78 1H1210.13M1246.78 1L1253.96 5.20651M1210.13 1H1173.48M1210.13 1L1216.72 5.20651M1173.48 1H1136.84M1173.48 1L1179.47 5.20651M1136.84 1H1100.19M1136.84 1L1138.17 2.03922L1140.18 3.61254L1142.22 5.20651M1100.19 1H1063.54M1100.19 1L1101.37 2.03922L1104.98 5.20651M1063.54 1H1026.89M1063.54 1L1067.73 5.20651M1026.89 1H990.242M1026.89 1L1028.22 2.56172L1029.57 4.14165L1030.03 4.67326L1030.48 5.20651M990.242 1H953.594M990.242 1L991.353 2.56172L991.727 3.08588L992.102 3.61254L993.235 5.20651M953.594 1H916.945M953.594 1L955.988 5.20651M916.945 1L917.167 1.51836L917.388 2.03922L918.513 4.67326L918.741 5.20651M916.945 1H880.297M880.297 1H843.648M880.297 1L881.494 5.20651M843.648 1H807M843.648 1L843.871 2.56172L844.247 5.20651M807 1H770.352M807 1V5.20651M770.352 1H733.703M770.352 1L770.13 2.56172L769.753 5.20651M733.703 1H697.055M733.703 1L732.506 5.20651M697.055 1L696.833 1.51836L696.612 2.03922L695.487 4.67326L695.259 5.20651M697.055 1H660.406M660.406 1H623.757M660.406 1L658.316 4.67326L658.012 5.20651M623.757 1H587.109M623.757 1L622.647 2.56172L622.273 3.08588L621.522 4.14165L621.145 4.67326L620.765 5.20651M587.109 1H550.461M587.109 1L585.777 2.56172L584.427 4.14165L583.974 4.67326L583.518 5.20651M550.461 1H513.813M550.461 1L546.272 5.20651M513.813 1H477.164M513.813 1L512.63 2.03922L509.025 5.20651M477.164 1H440.516M477.164 1L471.778 5.20651M440.516 1H403.867M440.516 1L434.531 5.20651M403.867 1H367.218M403.867 1L397.283 5.20651M367.218 1H330.57M367.218 1L360.036 5.20651M330.57 1H293.922M330.57 1L322.789 5.20651M293.922 1H257.274M293.922 1L285.542 5.20651M257.274 1H220.625M257.274 1L248.295 5.20651M220.625 1H183.977M220.625 1L211.048 5.20651M183.977 1H147.328M183.977 1L173.801 5.20651M147.328 1H110.679M147.328 1L136.554 5.20651M110.679 1H74.0312M110.679 1L99.3081 5.20651M74.0312 1H37.383M74.0312 1L62.0611 5.20651M37.383 1L32.8095 1.00164L28.2833 1.01075L23.8513 1.03636L19.5584 1.08679L15.4515 1.16864L11.5746 1.29184L7.97398 1.46298L4.63191 1.68122L1.76404 1.98301L-0.84695 2.33273L-1.56455 2.45525V5.20651M37.383 1L24.814 5.20651M99.3081 5.20651H136.554M99.3081 5.20651H62.0611M99.3081 5.20651L87.5578 9.55193M136.554 5.20651L125.423 9.55193M136.554 5.20651H173.801M248.295 5.20651H285.542M248.295 5.20651H211.048M248.295 5.20651L246.005 6.27964L239.02 9.55193M285.542 5.20651L276.885 9.55193M285.542 5.20651H322.789M397.283 5.20651H434.531M397.283 5.20651H360.036M397.283 5.20651L395.604 6.27964L394.758 6.81869L390.481 9.55193M434.531 5.20651L433.768 5.74142L433.004 6.27964L428.347 9.55193M434.531 5.20651H471.778M546.272 5.20651L545.738 5.74142L541.942 9.55193M546.272 5.20651H583.518M546.272 5.20651H509.025M583.518 5.20651L582.602 6.27964L582.141 6.81869L581.678 7.36104L579.808 9.55193M583.518 5.20651H620.765M695.259 5.20651H732.506M695.259 5.20651H658.012M695.259 5.20651L693.404 9.55193M732.506 5.20651L732.354 5.74142L732.201 6.27964L732.047 6.81869L731.582 8.45153L731.27 9.55193M732.506 5.20651H769.753M844.247 5.20651H881.494M844.247 5.20651H807M844.247 5.20651L844.865 9.55193M881.494 5.20651L881.646 5.74142L881.799 6.27964L881.953 6.81869L882.73 9.55193M881.494 5.20651H918.741M993.235 5.20651H1030.48M993.235 5.20651H955.988M993.235 5.20651L993.998 6.27964L995.545 8.45153L995.935 9.0005L996.327 9.55193M1030.48 5.20651L1031.4 6.27964L1031.86 6.81869L1032.32 7.36104L1034.19 9.55193M1030.48 5.20651H1067.73M1142.22 5.20651H1179.47M1142.22 5.20651H1104.98M1142.22 5.20651L1143.6 6.27964L1144.29 6.81869L1147.79 9.55193M1179.47 5.20651L1180.23 5.74142L1181 6.27964L1185.65 9.55193M1179.47 5.20651H1216.72M1291.21 5.20651H1328.46M1291.21 5.20651H1253.96M1291.21 5.20651L1293.2 6.27964L1294.19 6.81869L1299.25 9.55193M1328.46 5.20651L1337.12 9.55193M1328.46 5.20651H1365.7M1440.2 5.20651H1477.45M1440.2 5.20651H1402.95M1440.2 5.20651L1450.71 9.55193M1477.45 5.20651L1488.58 9.55193M1477.45 5.20651H1514.69M-1.6951 44.5435H-1.56455M35.7945 44.5435L50.0151 38.9918M35.7945 44.5435L21.0289 50.3076M35.7945 44.5435H78.6392M35.7945 44.5435H-1.56455M50.0151 38.9918H7.96051M50.0151 38.9918L63.7212 33.641M50.0151 38.9918H92.0698M7.96051 38.9918L22.4279 33.641M7.96051 38.9918H-1.56455M7.96051 38.9918L-1.56455 42.5139M49.845 23.5001H89.6954M49.845 23.5001L62.8477 18.6909M49.845 23.5001H9.9954M49.845 23.5001L36.3799 28.4804M89.6954 23.5001L102.014 18.6909M89.6954 23.5001L76.9395 28.4804M89.6954 23.5001H129.546M62.8477 18.6909H102.014M62.8477 18.6909L75.4116 14.0445M62.8477 18.6909H23.682M102.014 18.6909H141.18M102.014 18.6909L113.916 14.0445M-1.97473 132.171H-1.56455M32.5965 132.171L50.934 122.967M32.5965 132.171L13.3476 141.833M32.5965 132.171H87.9115M32.5965 132.171H-1.56455M50.934 122.967L68.4235 114.188M50.934 122.967H104.939M50.934 122.967H-1.56455M15.668 114.188H68.4235M15.668 114.188L33.5592 105.807M15.668 114.188H-1.56455M15.668 114.188L-1.56455 122.261M50.6586 97.7955H101.081M50.6586 97.7955L67.0186 90.1315M50.6586 97.7955H0.236192M50.6586 97.7955L33.5592 105.807M101.081 97.7955L116.351 90.1315M101.081 97.7955L85.1211 105.807M101.081 97.7955H151.504M67.0186 90.1315H116.351M67.0186 90.1315H17.6869M67.0186 90.1315L82.6862 82.7916M116.351 90.1315L130.974 82.7916M116.351 90.1315H165.683M112.111 69.0063H158.437M112.111 69.0063L125.945 62.5253M112.111 69.0063H65.7855M112.111 69.0063L97.7036 75.7559M158.437 69.0063L171.349 62.5253M158.437 69.0063L144.99 75.7559M158.437 69.0063H204.763M125.945 62.5253H171.349M125.945 62.5253H80.5418M125.945 62.5253L139.239 56.2974M171.349 62.5253L183.757 56.2974M171.349 62.5253H216.753M164.328 44.5435H207.173M164.328 44.5435L176.179 38.9918M164.328 44.5435H121.484M164.328 44.5435L152.024 50.3076M207.173 44.5435L218.234 38.9918M207.173 44.5435L195.689 50.3076M207.173 44.5435H250.018M176.179 38.9918H218.234M176.179 38.9918H134.124M176.179 38.9918L187.601 33.641M218.234 38.9918L228.894 33.641M218.234 38.9918H260.288M209.246 23.5001H249.096M209.246 23.5001L219.511 18.6909M209.246 23.5001H169.396M209.246 23.5001L198.616 28.4804M249.096 23.5001L258.677 18.6909M249.096 23.5001L239.175 28.4804M249.096 23.5001H288.947M219.511 18.6909H258.677M219.511 18.6909L229.431 14.0445M219.511 18.6909H180.346M258.677 18.6909H297.844M258.677 18.6909L267.935 14.0445M26.7748 291.746L52.5832 273.61M26.7748 291.746L-0.862951 311.167M26.7748 291.746H104.797M26.7748 291.746H-1.56455M52.5832 273.61L76.7399 256.635M52.5832 273.61H128.025M52.5832 273.61H-1.56455M52.0593 225.749H120.69M52.0593 225.749L74.1137 211.66M52.0593 225.749L28.6362 240.713M52.0593 225.749H-1.56455M120.69 225.749L140.739 211.66M120.69 225.749L99.3965 240.713M120.69 225.749H189.322M74.1137 211.66H140.739M74.1137 211.66H7.48801M74.1137 211.66L94.9166 198.37M140.739 211.66L159.651 198.37M140.739 211.66H207.366M133.168 173.933H194.426M133.168 173.933L150.794 162.673M133.168 173.933H71.9112M133.168 173.933L114.571 185.815M194.426 173.933L210.45 162.673M194.426 173.933L177.518 185.815M194.426 173.933H255.684M150.794 162.673H210.45M150.794 162.673H91.1391M150.794 162.673L167.521 151.988M210.45 162.673L225.656 151.988M210.45 162.673H270.104M198.54 132.171H253.855M198.54 132.171L212.948 122.967M198.54 132.171H143.226M198.54 132.171L183.416 141.833M253.855 132.171L266.953 122.967M253.855 132.171L240.105 141.833M253.855 132.171H309.169M212.948 122.967H266.953M212.948 122.967H158.944M212.948 122.967L226.69 114.188M266.953 122.967L279.445 114.188M266.953 122.967H320.958M252.35 97.7955H302.772M252.35 97.7955L264.347 90.1315M252.35 97.7955H201.927M252.35 97.7955L239.81 105.807M302.772 97.7955L313.68 90.1315M302.772 97.7955L291.372 105.807M302.772 97.7955H353.195M264.347 90.1315H313.68M264.347 90.1315H215.015M264.347 90.1315L275.836 82.7916M313.68 90.1315L324.124 82.7916M313.68 90.1315H363.011M297.415 69.0063H343.741M297.415 69.0063L307.56 62.5253M297.415 69.0063H251.089M297.415 69.0063L286.85 75.7559M343.741 69.0063L344.915 68.182L352.963 62.5253M343.741 69.0063L334.136 75.7559M343.741 69.0063H390.067M307.56 62.5253H352.963M307.56 62.5253H262.156M307.56 62.5253L317.309 56.2974M352.963 62.5253L361.826 56.2974M352.963 62.5253H398.367M335.707 44.5435H378.553M335.707 44.5435L344.398 38.9918M335.707 44.5435H292.862M335.707 44.5435L326.684 50.3076M378.553 44.5435L386.453 38.9918M378.553 44.5435L375.513 46.6798L370.349 50.3076M378.553 44.5435H421.397M344.398 38.9918H386.453M344.398 38.9918H302.344M344.398 38.9918L352.774 33.641M386.453 38.9918L394.067 33.641M386.453 38.9918H428.508M368.647 23.5001H408.497M368.647 23.5001L376.175 18.6909M368.647 23.5001H328.797M368.647 23.5001L360.852 28.4804M408.497 23.5001L413.653 19.8781L414.498 19.2828L415.341 18.6909M408.497 23.5001L401.411 28.4804M408.497 23.5001H448.348M376.175 18.6909H415.341M376.175 18.6909L383.449 14.0445M376.175 18.6909H337.009M415.341 18.6909H454.507M415.341 18.6909L421.953 14.0445M55.0434 498.345H162.466M55.0434 498.345L88.8683 464.389M55.0434 498.345L17.8747 535.659M55.0434 498.345L-1.56455 498.346M162.466 498.345L191.459 464.389M162.466 498.345L130.607 535.659M162.466 498.345H269.888M88.8683 464.389H191.459M88.8683 464.389L119.782 433.356M88.8683 464.389H-1.56455M191.459 464.389L217.956 433.356M191.459 464.389H294.049M174.256 378.669H264.649M174.256 378.669L198.378 354.453M174.256 378.669H83.8645M174.256 378.669L148.143 404.884M264.649 378.669L285.324 354.453M264.649 378.669L242.266 404.884M264.649 378.669H355.04M198.378 354.453H285.324M198.378 354.453H111.432M198.378 354.453L220.729 332.016M285.324 354.453L304.482 332.016M285.324 354.453H372.27M260.842 291.746H338.865M260.842 291.746L278.909 273.61M260.842 291.746H182.819M260.842 291.746L241.496 311.167M338.865 291.746L354.35 273.61M338.865 291.746L322.282 311.167M338.865 291.746H416.887M278.909 273.61H354.35M278.909 273.61H203.466M278.909 273.61L295.818 256.635M354.35 273.61L368.844 256.635M354.35 273.61H429.792M326.583 225.749H395.214M326.583 225.749L340.618 211.66M326.583 225.749H257.953M326.583 225.749L311.678 240.713M395.214 225.749L407.244 211.66M395.214 225.749L382.438 240.713M395.214 225.749H463.845M340.618 211.66H407.244M340.618 211.66H273.992M340.618 211.66L353.856 198.37M407.244 211.66L418.591 198.37M407.244 211.66H473.87M378.198 173.933H439.456M378.198 173.933L389.414 162.673M378.198 173.933H316.941M378.198 173.933L366.363 185.815M439.456 173.933L449.07 162.673M439.456 173.933L429.311 185.815M439.456 173.933H500.713M389.414 162.673H449.07M389.414 162.673H329.759M389.414 162.673L400.059 151.988M449.07 162.673L458.193 151.988M449.07 162.673H508.725M419.799 132.171H475.113M419.799 132.171L428.967 122.967M419.799 132.171H364.484M419.799 132.171L410.174 141.833M475.113 132.171L482.972 122.967M475.113 132.171L466.863 141.833M475.113 132.171H530.427M428.967 122.967H482.972M428.967 122.967H374.962M428.967 122.967L437.712 114.188M482.972 122.967L490.467 114.188M482.972 122.967H536.977M454.041 97.7955H504.464M454.041 97.7955L461.676 90.1315M454.041 97.7955H403.618M454.041 97.7955L446.061 105.807M504.464 97.7955L511.007 90.1315M504.464 97.7955L497.624 105.807M504.464 97.7955H554.886M461.676 90.1315H511.007M461.676 90.1315H412.343M461.676 90.1315L468.987 82.7916M511.007 90.1315L517.275 82.7916M511.007 90.1315H560.34M482.718 69.0063H529.045M482.718 69.0063L489.174 62.5253M482.718 69.0063H436.393M482.718 69.0063L475.995 75.7559M529.045 69.0063L528.337 69.8347L523.281 75.7559M529.045 69.0063L534.578 62.5253M529.045 69.0063H575.371M489.174 62.5253H534.578M489.174 62.5253H443.771M489.174 62.5253L495.378 56.2974M534.578 62.5253L539.896 56.2974M534.578 62.5253H579.982M507.087 44.5435H549.931M507.087 44.5435L512.617 38.9918M507.087 44.5435H464.242M507.087 44.5435L501.345 50.3076M549.931 44.5435L554.672 38.9918M549.931 44.5435L548.108 46.6798L546.877 48.1208L545.01 50.3076M549.931 44.5435H592.776M512.617 38.9918H554.672M512.617 38.9918H470.562M512.617 38.9918L517.947 33.641M554.672 38.9918L556.405 36.9621L557.547 35.6244L559.241 33.641M554.672 38.9918H596.726M528.049 23.5001H567.898M528.049 23.5001L531.657 19.8781L532.839 18.6909M528.049 23.5001H488.198M528.049 23.5001L523.717 27.848L523.088 28.4804M567.898 23.5001L570.992 19.8781L571.499 19.2828L572.005 18.6909M567.898 23.5001L565.791 25.9679L563.646 28.4804M567.898 23.5001H607.749M532.839 18.6909H572.005M532.839 18.6909L537.468 14.0445M532.839 18.6909H493.673M572.005 18.6909H611.171M572.005 18.6909L575.972 14.0445M484.733 498.345H592.155M484.733 498.345L499.229 464.389M484.733 498.345H377.311M484.733 498.345L468.804 535.659M592.155 498.345L601.82 464.389M592.155 498.345L581.536 535.659M592.155 498.345H699.578M499.229 464.389H601.82M499.229 464.389H396.639M499.229 464.389L512.478 433.356M601.82 464.389L610.652 433.356M601.82 464.389H704.41M535.824 378.669H626.216M535.824 378.669L546.162 354.453M535.824 378.669H445.432M535.824 378.669L524.632 404.884M626.216 378.669L633.108 354.453M626.216 378.669L618.755 404.884M626.216 378.669H716.608M546.162 354.453H633.108M546.162 354.453H459.216M546.162 354.453L555.741 332.016M633.108 354.453L639.494 332.016M633.108 354.453H720.054M572.932 291.746H650.955M572.932 291.746L580.675 273.61M572.932 291.746H494.91M572.932 291.746L564.641 311.167M650.955 291.746L656.117 273.61M650.955 291.746L645.428 311.167M650.955 291.746H728.978M580.675 273.61H656.117M580.675 273.61H505.234M580.675 273.61L587.922 256.635M656.117 273.61L660.948 256.635M656.117 273.61H731.558M601.107 225.749H669.738M601.107 225.749L607.122 211.66M601.107 225.749H532.476M601.107 225.749L594.719 240.713M669.738 225.749L673.748 211.66M669.738 225.749L665.479 240.713M669.738 225.749H738.369M607.122 211.66H673.748M607.122 211.66H540.496M607.122 211.66L612.795 198.37M673.748 211.66L677.53 198.37M673.748 211.66H740.374M623.228 173.933H684.486M623.228 173.933L628.034 162.673M623.228 173.933H561.97M623.228 173.933L618.156 185.815M684.486 173.933L687.69 162.673M684.486 173.933L681.104 185.815M684.486 173.933H745.743M628.034 162.673H687.69M628.034 162.673H568.38M628.034 162.673L632.597 151.988M687.69 162.673L690.731 151.988M687.69 162.673H747.345M641.056 132.171H696.371M641.056 132.171L644.986 122.967M641.056 132.171H585.742M641.056 132.171L636.932 141.833M696.371 132.171L698.991 122.967M696.371 132.171L693.621 141.833M696.371 132.171H751.686M644.986 122.967H698.991M644.986 122.967H590.981M644.986 122.967L646.412 119.627L648.734 114.188M698.991 122.967L701.489 114.188M698.991 122.967H752.995M655.732 97.7955H706.154M655.732 97.7955L659.004 90.1315M655.732 97.7955H605.309M655.732 97.7955L653.182 103.77L652.312 105.807M706.154 97.7955L706.984 94.882L708.336 90.1315M706.154 97.7955L703.874 105.807M706.154 97.7955H756.578M659.004 90.1315L659.402 89.1964L662.137 82.7916M659.004 90.1315H708.336M659.004 90.1315H609.672M708.336 90.1315L709.13 87.342L709.391 86.4218L709.652 85.5074L710.425 82.7916M708.336 90.1315H757.668M668.022 69.0063H714.348M668.022 69.0063L669.419 65.7331L669.765 64.9254L670.108 64.121L670.449 63.3215L670.789 62.5253M668.022 69.0063H621.696M668.022 69.0063L665.141 75.7559M714.348 69.0063L715.738 64.121L715.967 63.3215L716.192 62.5253M714.348 69.0063L712.427 75.7559M714.348 69.0063H760.674M670.789 62.5253H716.192M670.789 62.5253H625.385M670.789 62.5253L672.463 58.604L672.793 57.831L673.448 56.2974M716.192 62.5253L717.308 58.604L717.529 57.831L717.747 57.0622L717.965 56.2974M716.192 62.5253H761.597M678.466 44.5435H721.311M678.466 44.5435L680.836 38.9918M678.466 44.5435H635.621M678.466 44.5435L677.859 45.9638L676.938 48.1208L676.005 50.3076M721.311 44.5435L721.109 45.252L719.878 49.5751L719.67 50.3076M721.311 44.5435L722.891 38.9918M721.311 44.5435H764.155M680.836 38.9918H722.891M680.836 38.9918H638.782M680.836 38.9918L683.12 33.641M722.891 38.9918L723.469 36.9621L723.659 36.2916L723.849 35.6244L724.414 33.641M722.891 38.9918H764.945M687.45 23.5001H727.299M687.45 23.5001L688.996 19.8781L689.502 18.6909M687.45 23.5001H647.599M687.45 23.5001L686.66 25.347L686.396 25.9679L686.129 26.5921L685.323 28.4804M727.299 23.5001L727.474 22.8899L727.818 21.6771L728.161 20.475L728.668 18.6909M727.299 23.5001L726.597 25.9679L726.42 26.5921L726.062 27.848L725.883 28.4804M727.299 23.5001H767.15M689.502 18.6909H728.668M689.502 18.6909L691.241 14.6166L691.486 14.0445M689.502 18.6909H650.336M728.668 18.6909L728.836 18.1014L729.003 17.5144L729.17 16.9299L729.335 16.3478L729.828 14.6166L729.991 14.0445M728.668 18.6909H767.834M914.422 498.345H1021.84M914.422 498.345L909.59 464.389M914.422 498.345H807M914.422 498.345L919.732 535.659M1021.84 498.345L1012.18 464.389M1021.84 498.345L1032.46 535.659M1021.84 498.345H1129.27M909.59 464.389H1012.18M909.59 464.389H807M909.59 464.389L905.174 433.356M1012.18 464.389L1003.35 433.356M1012.18 464.389H1114.77M897.392 378.669H987.784M897.392 378.669L893.946 354.453M897.392 378.669H807M897.392 378.669L901.123 404.884M987.784 378.669L980.892 354.453M987.784 378.669L995.245 404.884M987.784 378.669H1078.18M893.946 354.453H980.892M893.946 354.453H807M893.946 354.453L890.753 332.016M980.892 354.453L974.506 332.016M980.892 354.453H1067.84M885.022 291.746H963.045M885.022 291.746L882.442 273.61M885.022 291.746H807M885.022 291.746L887.786 311.167M963.045 291.746L957.883 273.61M963.045 291.746L968.572 311.167M963.045 291.746H1041.07M882.442 273.61H957.883M882.442 273.61H807M882.442 273.61L880.026 256.635M957.883 273.61L953.052 256.635M957.883 273.61H1033.32M875.631 225.749H944.262M875.631 225.749L873.626 211.66M875.631 225.749H807M875.631 225.749L877.76 240.713M944.262 225.749L940.252 211.66M944.262 225.749L948.521 240.713M944.262 225.749H1012.89M873.626 211.66H940.252M873.626 211.66H807M873.626 211.66L871.735 198.37M940.252 211.66L936.47 198.37M940.252 211.66H1006.88M868.257 173.933H929.514M868.257 173.933L866.655 162.673M868.257 173.933H807M868.257 173.933L869.948 185.815M929.514 173.933L926.31 162.673M929.514 173.933L932.896 185.815M929.514 173.933H990.772M866.655 162.673H926.31M866.655 162.673H807M866.655 162.673L865.134 151.988M926.31 162.673L923.269 151.988M926.31 162.673H985.966M862.314 132.171H917.629M862.314 132.171L861.005 122.967M862.314 132.171H807M862.314 132.171L863.69 141.833M917.629 132.171L915.009 122.967M917.629 132.171L920.379 141.833M917.629 132.171H972.943M861.005 122.967H915.009M861.005 122.967H807M861.005 122.967L859.755 114.188M915.009 122.967L912.511 114.188M915.009 122.967H969.014M857.423 97.7955H907.846M857.423 97.7955L856.332 90.1315M857.423 97.7955H807M857.423 97.7955L858.563 105.807M907.846 97.7955L905.931 91.0715L905.664 90.1315M907.846 97.7955L910.126 105.807M907.846 97.7955H958.268M856.332 90.1315L856.2 89.1964L855.287 82.7916M856.332 90.1315H905.664M856.332 90.1315H807M905.664 90.1315L904.87 87.342L904.609 86.4218L904.348 85.5074L903.575 82.7916M905.664 90.1315H954.996M853.326 69.0063H899.652M853.326 69.0063L852.403 62.5253M853.326 69.0063H807M853.326 69.0063L853.681 71.5047L853.802 72.3464L853.921 73.1921L854.164 74.8969L854.287 75.7559M899.652 69.0063L898.262 64.121L897.807 62.5253M899.652 69.0063L901.573 75.7559M899.652 69.0063H945.978M852.403 62.5253H897.807M852.403 62.5253H807M852.403 62.5253L851.517 56.2974M897.807 62.5253L896.692 58.604L896.471 57.831L896.253 57.0622L896.035 56.2974M897.807 62.5253H943.211M849.845 44.5435H892.689M849.845 44.5435L849.055 38.9918M849.845 44.5435H807M849.845 44.5435L850.665 50.3076M892.689 44.5435L892.891 45.252L894.122 49.5751L894.33 50.3076M892.689 44.5435L891.109 38.9918M892.689 44.5435H935.534M849.055 38.9918H891.109M849.055 38.9918H807M849.055 38.9918L848.293 33.641M891.109 38.9918L890.531 36.9621L890.341 36.2916L890.151 35.6244L889.586 33.641M891.109 38.9918H933.164M846.851 23.5001H886.701M846.851 23.5001L846.166 18.6909M846.851 23.5001H807M846.851 23.5001L847.559 28.4804M886.701 23.5001L886.527 22.8899L886.181 21.6771L886.01 21.0744L885.669 19.8781L885.501 19.2828L885.331 18.6909M886.701 23.5001L887.403 25.9679L887.58 26.5921L887.938 27.848L888.118 28.4804M886.701 23.5001H926.55M846.166 18.6909L846.082 18.1014L845.998 17.5144L845.916 16.9299L845.505 14.0445M846.166 18.6909H885.331M846.166 18.6909H807M885.331 18.6909H924.498M885.331 18.6909L884.997 17.5144L884.83 16.9299L884.665 16.3478L884.172 14.6166L884.009 14.0445M1344.11 498.345H1451.53M1344.11 498.345L1319.95 464.389M1344.11 498.345H1236.69M1344.11 498.345L1370.66 535.659M1451.53 498.345L1422.54 464.389M1451.53 498.345L1483.39 535.659M1451.53 498.345H1558.96M1319.95 464.389H1422.54M1319.95 464.389H1217.36M1319.95 464.389L1297.87 433.356M1422.54 464.389L1396.04 433.356M1422.54 464.389H1525.13M1258.96 378.669H1349.35M1258.96 378.669L1241.73 354.453M1258.96 378.669H1168.57M1258.96 378.669L1277.61 404.884M1349.35 378.669L1328.68 354.453M1349.35 378.669L1371.73 404.884M1349.35 378.669H1439.74M1241.73 354.453H1328.68M1241.73 354.453H1154.78M1241.73 354.453L1225.76 332.016M1328.68 354.453L1309.52 332.016M1328.68 354.453H1415.62M1197.11 291.746H1275.14M1197.11 291.746L1184.21 273.61M1197.11 291.746H1119.09M1197.11 291.746L1210.93 311.167M1275.14 291.746L1259.65 273.61M1275.14 291.746L1291.72 311.167M1275.14 291.746H1353.16M1184.21 273.61H1259.65M1184.21 273.61H1108.77M1184.21 273.61L1172.13 256.635M1259.65 273.61L1245.16 256.635M1259.65 273.61H1335.09M1150.15 225.749H1218.79M1150.15 225.749L1140.13 211.66M1150.15 225.749H1081.52M1150.15 225.749L1160.8 240.713M1218.79 225.749L1206.76 211.66M1218.79 225.749L1231.56 240.713M1218.79 225.749H1287.42M1140.13 211.66H1206.76M1140.13 211.66H1073.5M1140.13 211.66L1130.67 198.37M1206.76 211.66L1195.41 198.37M1206.76 211.66H1273.38M1113.29 173.933H1174.54M1113.29 173.933L1105.28 162.673M1113.29 173.933H1052.03M1113.29 173.933L1121.74 185.815M1174.54 173.933L1164.93 162.673M1174.54 173.933L1184.69 185.815M1174.54 173.933H1235.8M1105.28 162.673H1164.93M1105.28 162.673H1045.62M1105.28 162.673L1097.67 151.988M1164.93 162.673L1155.81 151.988M1164.93 162.673H1224.59M1083.57 132.171H1138.89M1083.57 132.171L1077.02 122.967M1083.57 132.171H1028.26M1083.57 132.171L1090.45 141.833M1138.89 132.171L1131.03 122.967M1138.89 132.171L1147.14 141.833M1138.89 132.171H1194.2M1077.02 122.967H1131.03M1077.02 122.967H1023.02M1077.02 122.967L1070.78 114.188M1131.03 122.967L1123.53 114.188M1131.03 122.967H1185.03M1059.11 97.7955L1059.81 98.7777L1060.52 99.7648L1064.81 105.807M1059.11 97.7955H1109.54M1059.11 97.7955L1053.66 90.1315M1059.11 97.7955H1008.69M1109.54 97.7955L1102.99 90.1315M1109.54 97.7955L1116.38 105.807M1109.54 97.7955H1159.96M1053.66 90.1315H1102.99M1053.66 90.1315H1004.33M1053.66 90.1315L1048.44 82.7916M1102.99 90.1315L1096.73 82.7916M1102.99 90.1315H1152.32M1038.63 69.0063H1084.96M1038.63 69.0063L1034.02 62.5253M1038.63 69.0063H992.304M1038.63 69.0063L1043.43 75.7559M1084.96 69.0063L1081.47 64.9254L1079.42 62.5253M1084.96 69.0063L1090.72 75.7559M1084.96 69.0063H1131.28M1034.02 62.5253H1079.42M1034.02 62.5253H988.615M1034.02 62.5253L1030.13 57.0622L1029.59 56.2974M1079.42 62.5253L1074.1 56.2974M1079.42 62.5253H1124.83M1021.22 44.5435H1064.07M1021.22 44.5435L1020.22 43.1355L1017.27 38.9918M1021.22 44.5435H978.38M1021.22 44.5435L1022.23 45.9638L1024.29 48.8459L1025.33 50.3076M1064.07 44.5435L1059.33 38.9918M1064.07 44.5435L1065.89 46.6798L1067.12 48.1208L1068.99 50.3076M1064.07 44.5435H1106.91M1017.27 38.9918H1059.33M1017.27 38.9918H975.218M1017.27 38.9918L1014.41 34.9597L1013.47 33.641M1059.33 38.9918L1057.6 36.9621L1056.45 35.6244L1054.76 33.641M1059.33 38.9918H1101.38M1006.25 23.5001H1046.1M1006.25 23.5001L1004.1 20.475L1002.83 18.6909M1006.25 23.5001H966.401M1006.25 23.5001L1009.79 28.4804M1046.1 23.5001L1043.01 19.8781L1042.5 19.2828L1041.99 18.6909M1046.1 23.5001L1048.21 25.9679L1050.35 28.4804M1046.1 23.5001H1085.95M1002.83 18.6909H1041.99M1002.83 18.6909L1001.16 16.3478L1000.34 15.1912L999.93 14.6166L999.523 14.0445M1002.83 18.6909H963.664M1041.99 18.6909H1081.16M1041.99 18.6909L1038.03 14.0445M1589.51 354.453H1502.57M1589.51 354.453L1560.78 332.016M1589.51 354.453H1615.56M1589.51 354.453L1615.56 374.794M1509.2 291.746H1587.23M1509.2 291.746L1485.98 273.61M1509.2 291.746H1431.18M1509.2 291.746L1534.08 311.167M1587.23 291.746L1561.42 273.61M1587.23 291.746L1614.86 311.167M1587.23 291.746H1615.56M1485.98 273.61H1561.42M1485.98 273.61H1410.53M1485.98 273.61L1464.23 256.635M1561.42 273.61L1537.26 256.635M1561.42 273.61H1615.56M1424.68 225.749H1493.31M1424.68 225.749L1406.63 211.66M1424.68 225.749H1356.05M1424.68 225.749L1443.84 240.713M1493.31 225.749L1473.26 211.66M1493.31 225.749L1514.6 240.713M1493.31 225.749H1561.94M1406.63 211.66H1473.26M1406.63 211.66H1340.01M1406.63 211.66L1389.61 198.37M1473.26 211.66L1454.35 198.37M1473.26 211.66H1539.89M1358.32 173.933H1419.57M1358.32 173.933L1343.9 162.673M1358.32 173.933H1297.06M1358.32 173.933L1373.53 185.815M1419.57 173.933L1403.55 162.673M1419.57 173.933L1436.48 185.815M1419.57 173.933H1480.83M1343.9 162.673H1403.55M1343.9 162.673H1284.24M1343.9 162.673L1330.21 151.988M1403.55 162.673L1388.34 151.988M1403.55 162.673H1463.21M1304.83 132.171H1360.14M1304.83 132.171L1293.04 122.967M1304.83 132.171H1249.52M1304.83 132.171L1317.21 141.833M1360.14 132.171L1347.05 122.967M1360.14 132.171L1373.89 141.833M1360.14 132.171H1415.46M1293.04 122.967H1347.05M1293.04 122.967H1239.04M1293.04 122.967L1281.8 114.188M1347.05 122.967L1334.55 114.188M1347.05 122.967H1401.05M1260.81 97.7955H1311.23M1260.81 97.7955L1250.99 90.1315M1260.81 97.7955H1210.38M1260.81 97.7955L1271.06 105.807M1311.23 97.7955L1300.32 90.1315M1311.23 97.7955L1322.63 105.807M1311.23 97.7955H1361.65M1250.99 90.1315H1300.32M1250.99 90.1315H1201.66M1250.99 90.1315L1241.59 82.7916M1300.32 90.1315L1289.88 82.7916M1300.32 90.1315H1349.65M1223.93 69.0063H1270.26M1223.93 69.0063L1215.63 62.5253M1223.93 69.0063H1177.61M1223.93 69.0063L1232.58 75.7559M1270.26 69.0063L1261.04 62.5253M1270.26 69.0063L1279.86 75.7559M1270.26 69.0063H1316.59M1215.63 62.5253H1261.04M1215.63 62.5253H1170.23M1215.63 62.5253L1207.66 56.2974M1261.04 62.5253L1252.17 56.2974M1261.04 62.5253H1306.44M1192.6 44.5435H1235.45M1192.6 44.5435L1185.49 38.9918M1192.6 44.5435H1149.76M1192.6 44.5435L1194.42 45.9638L1195.34 46.6798L1199.99 50.3076M1235.45 44.5435L1227.55 38.9918M1235.45 44.5435L1243.65 50.3076M1235.45 44.5435H1278.29M1185.49 38.9918H1227.55M1185.49 38.9918H1143.44M1185.49 38.9918L1178.64 33.641M1227.55 38.9918L1219.93 33.641M1227.55 38.9918H1269.6M1165.65 23.5001H1205.5M1165.65 23.5001L1159.49 18.6909M1165.65 23.5001H1125.8M1165.65 23.5001L1172.03 28.4804M1205.5 23.5001L1200.35 19.8781L1199.5 19.2828L1198.66 18.6909M1205.5 23.5001L1212.59 28.4804M1205.5 23.5001H1245.35M1159.49 18.6909H1198.66M1159.49 18.6909L1154.28 14.6166L1153.54 14.0445M1159.49 18.6909H1120.33M1198.66 18.6909H1237.83M1198.66 18.6909L1192.05 14.0445M1603.35 173.933L1582.52 162.673M1603.35 173.933H1542.09M1603.35 173.933L1615.56 180.538M1603.35 173.933H1615.56M1582.52 162.673H1522.86M1582.52 162.673L1562.75 151.988M1582.52 162.673H1615.56M1526.09 132.171H1581.4M1526.09 132.171L1509.06 122.967M1526.09 132.171H1470.77M1526.09 132.171L1543.96 141.833M1581.4 132.171L1563.07 122.967M1581.4 132.171L1600.65 141.833M1581.4 132.171H1615.56M1509.06 122.967H1563.07M1509.06 122.967H1455.06M1509.06 122.967L1492.82 114.188M1563.07 122.967L1545.58 114.188M1563.07 122.967H1615.56M1462.5 97.7955H1512.92M1462.5 97.7955L1448.32 90.1315M1462.5 97.7955H1412.07M1462.5 97.7955L1477.32 105.807M1512.92 97.7955L1497.65 90.1315M1512.92 97.7955L1528.88 105.807M1512.92 97.7955H1563.34M1448.32 90.1315H1497.65M1448.32 90.1315H1398.98M1448.32 90.1315L1434.74 82.7916M1497.65 90.1315L1483.03 82.7916M1497.65 90.1315H1546.98M1409.24 69.0063H1455.56M1409.24 69.0063L1397.25 62.5253M1409.24 69.0063H1362.91M1409.24 69.0063L1421.72 75.7559M1455.56 69.0063L1442.65 62.5253M1455.56 69.0063L1469.01 75.7559M1455.56 69.0063H1501.89M1397.25 62.5253H1442.65M1397.25 62.5253H1351.84M1397.25 62.5253L1385.73 56.2974M1442.65 62.5253L1430.24 56.2974M1442.65 62.5253H1488.05M1363.98 44.5435H1406.83M1363.98 44.5435L1353.71 38.9918M1363.98 44.5435H1321.14M1363.98 44.5435L1374.65 50.3076M1406.83 44.5435L1395.77 38.9918M1406.83 44.5435L1418.31 50.3076M1406.83 44.5435H1449.67M1353.71 38.9918H1395.77M1353.71 38.9918H1311.66M1353.71 38.9918L1343.81 33.641M1395.77 38.9918L1385.11 33.641M1395.77 38.9918H1437.82M1325.05 23.5001H1364.9M1325.05 23.5001L1316.16 18.6909M1325.05 23.5001H1285.2M1325.05 23.5001L1334.27 28.4804M1364.9 23.5001L1355.32 18.6909M1364.9 23.5001L1374.83 28.4804M1364.9 23.5001H1404.75M1316.16 18.6909H1355.32M1316.16 18.6909L1307.56 14.0445M1316.16 18.6909H1276.99M1355.32 18.6909H1394.49M1355.32 18.6909L1346.06 14.0445M1594.54 69.0063L1578.86 62.5253M1594.54 69.0063H1548.21M1594.54 69.0063L1610.87 75.7559M1594.54 69.0063H1615.56M1578.86 62.5253H1533.46M1578.86 62.5253L1563.8 56.2974M1578.86 62.5253H1615.56M1535.36 44.5435H1578.21M1535.36 44.5435L1521.93 38.9918M1535.36 44.5435H1492.52M1535.36 44.5435L1549.31 50.3076M1578.21 44.5435L1563.98 38.9918M1578.21 44.5435L1592.97 50.3076M1578.21 44.5435H1615.56M1521.93 38.9918H1563.98M1521.93 38.9918H1479.88M1521.93 38.9918L1508.99 33.641M1563.98 38.9918L1550.28 33.641M1563.98 38.9918H1606.04M1484.45 23.5001H1524.3M1484.45 23.5001L1472.82 18.6909M1484.45 23.5001H1444.6M1484.45 23.5001L1496.5 28.4804M1524.3 23.5001L1511.99 18.6909M1524.3 23.5001L1537.06 28.4804M1524.3 23.5001H1564.16M1472.82 18.6909H1511.99M1472.82 18.6909L1461.58 14.0445M1472.82 18.6909H1433.65M1511.99 18.6909H1551.15M1511.99 18.6909L1500.08 14.0445M1537.06 28.4804L1550.28 33.641M1537.06 28.4804H1577.62M1537.06 28.4804H1496.5M1564.16 23.5001L1551.15 18.6909M1564.16 23.5001L1577.62 28.4804M1564.16 23.5001H1604M1551.15 18.6909H1590.32M1551.15 18.6909L1538.59 14.0445M1500.08 14.0445H1461.58M1500.08 14.0445H1538.59M1500.08 14.0445L1488.58 9.55193M1577.62 28.4804L1591.57 33.641M1577.62 28.4804H1615.56M1604 23.5001L1590.32 18.6909M1604 23.5001L1615.56 27.5615M1604 23.5001H1615.56M1590.32 18.6909L1577.09 14.0445M1590.32 18.6909H1615.56M1538.59 14.0445H1577.09M1538.59 14.0445L1526.44 9.55193M1577.09 14.0445L1564.31 9.55193M1577.09 14.0445H1615.56M1550.28 33.641H1591.57M1550.28 33.641H1508.99M1606.04 38.9918L1591.57 33.641M1606.04 38.9918L1615.56 42.5139M1606.04 38.9918H1615.56M1591.57 33.641H1615.56M1508.99 33.641H1467.69M1508.99 33.641L1496.5 28.4804M1496.5 28.4804H1455.94M1592.97 50.3076L1608.31 56.2974M1592.97 50.3076H1549.31M1592.97 50.3076H1615.56M1615.7 44.5435H1615.56M1608.31 56.2974H1563.8M1608.31 56.2974L1615.56 59.1282M1608.31 56.2974H1615.56M1563.8 56.2974H1519.28M1563.8 56.2974L1549.31 50.3076M1549.31 50.3076H1505.64M1374.83 28.4804L1385.11 33.641M1374.83 28.4804H1415.38M1374.83 28.4804H1334.27M1404.75 23.5001L1394.49 18.6909M1404.75 23.5001L1415.38 28.4804M1404.75 23.5001H1444.6M1394.49 18.6909H1433.65M1394.49 18.6909L1384.57 14.0445M1346.06 14.0445H1384.57M1346.06 14.0445L1337.12 9.55193M1346.06 14.0445H1307.56M1415.38 28.4804L1426.4 33.641M1415.38 28.4804H1455.94M1444.6 23.5001L1433.65 18.6909M1444.6 23.5001L1455.94 28.4804M1433.65 18.6909L1423.07 14.0445M1384.57 14.0445H1423.07M1384.57 14.0445L1374.98 9.55193M1455.94 28.4804L1467.69 33.641M1461.58 14.0445H1423.07M1461.58 14.0445L1450.71 9.55193M1423.07 14.0445L1412.85 9.55193M1385.11 33.641H1426.4M1385.11 33.641H1343.81M1437.82 38.9918L1426.4 33.641M1437.82 38.9918L1449.67 44.5435M1437.82 38.9918H1479.88M1426.4 33.641H1467.69M1343.81 33.641H1302.52M1343.81 33.641L1334.27 28.4804M1467.69 33.641L1479.88 38.9918M1334.27 28.4804H1293.71M1449.67 44.5435L1461.98 50.3076M1449.67 44.5435H1492.52M1479.88 38.9918L1492.52 44.5435M1492.52 44.5435L1505.64 50.3076M1418.31 50.3076L1430.24 56.2974M1418.31 50.3076H1461.98M1418.31 50.3076H1374.65M1461.98 50.3076L1474.76 56.2974M1461.98 50.3076H1505.64M1505.64 50.3076L1519.28 56.2974M1430.24 56.2974H1474.76M1430.24 56.2974H1385.73M1488.05 62.5253L1474.76 56.2974M1488.05 62.5253L1501.89 69.0063M1488.05 62.5253H1533.46M1474.76 56.2974H1519.28M1385.73 56.2974H1341.21M1385.73 56.2974L1374.65 50.3076M1519.28 56.2974L1533.46 62.5253M1374.65 50.3076H1330.98M1501.89 69.0063L1516.3 75.7559M1501.89 69.0063H1548.21M1533.46 62.5253L1548.21 69.0063M1548.21 69.0063L1563.58 75.7559M1469.01 75.7559L1483.03 82.7916M1469.01 75.7559H1516.3M1469.01 75.7559H1421.72M1516.3 75.7559L1531.31 82.7916M1516.3 75.7559H1563.58M1563.58 75.7559L1579.6 82.7916M1563.58 75.7559H1610.87M1610.87 75.7559H1615.56M1610.87 75.7559L1615.56 77.6965M1483.03 82.7916H1531.31M1483.03 82.7916H1434.74M1546.98 90.1315L1531.31 82.7916M1546.98 90.1315L1563.34 97.7955M1546.98 90.1315H1596.31M1531.31 82.7916H1579.6M1434.74 82.7916H1386.45M1434.74 82.7916L1421.72 75.7559M1579.6 82.7916L1596.31 90.1315M1579.6 82.7916H1615.56M1421.72 75.7559H1374.44M1563.34 97.7955L1580.44 105.807M1563.34 97.7955H1613.76M1596.31 90.1315L1613.76 97.7955M1596.31 90.1315H1615.56M1615.82 82.7916H1615.56M1613.76 97.7955L1615.56 98.5864M1613.76 97.7955H1615.56M1528.88 105.807L1545.58 114.188M1528.88 105.807H1580.44M1528.88 105.807H1477.32M1580.44 105.807L1598.33 114.188M1580.44 105.807H1615.56M1616 98.7777L1615.56 98.5864M1545.58 114.188H1598.33M1545.58 114.188H1492.82M1598.33 114.188H1615.56M1598.33 114.188L1615.56 122.261M1492.82 114.188H1440.07M1492.82 114.188L1477.32 105.807M1477.32 105.807H1425.75M1600.65 141.833H1543.96M1600.65 141.833L1615.56 149.318M1600.65 141.833H1615.56M1615.97 132.171H1615.56M1543.96 141.833H1487.27M1543.96 141.833L1562.75 151.988M1615.73 149.401L1615.56 149.318M1212.59 28.4804L1219.93 33.641M1212.59 28.4804H1253.15M1212.59 28.4804H1172.03M1245.35 23.5001L1237.83 18.6909M1245.35 23.5001L1253.15 28.4804M1245.35 23.5001H1285.2M1237.83 18.6909H1276.99M1237.83 18.6909L1230.55 14.0445M1192.05 14.0445H1230.55M1192.05 14.0445L1189.62 12.3422L1185.65 9.55193M1192.05 14.0445H1153.54M1253.15 28.4804L1261.23 33.641M1253.15 28.4804H1293.71M1285.2 23.5001L1276.99 18.6909M1285.2 23.5001L1293.71 28.4804M1276.99 18.6909L1269.06 14.0445M1230.55 14.0445H1269.06M1230.55 14.0445L1223.52 9.55193M1293.71 28.4804L1302.52 33.641M1307.56 14.0445L1299.25 9.55193M1307.56 14.0445H1269.06M1269.06 14.0445L1268.08 13.474L1266.15 12.3422L1261.38 9.55193M1219.93 33.641H1261.23M1219.93 33.641H1178.64M1269.6 38.9918L1261.23 33.641M1269.6 38.9918L1278.29 44.5435M1269.6 38.9918H1311.66M1261.23 33.641H1302.52M1178.64 33.641H1137.35M1178.64 33.641L1172.03 28.4804M1302.52 33.641L1311.66 38.9918M1172.03 28.4804H1131.47M1278.29 44.5435L1287.32 50.3076M1278.29 44.5435H1321.14M1311.66 38.9918L1312.82 39.6739L1321.14 44.5435M1321.14 44.5435L1330.98 50.3076M1243.65 50.3076L1244.7 51.0442L1252.17 56.2974M1243.65 50.3076H1287.32M1243.65 50.3076H1199.99M1287.32 50.3076L1296.69 56.2974M1287.32 50.3076H1330.98M1330.98 50.3076L1341.21 56.2974M1252.17 56.2974H1296.69M1252.17 56.2974H1207.66M1306.44 62.5253L1296.69 56.2974M1306.44 62.5253L1316.59 69.0063M1306.44 62.5253H1351.84M1296.69 56.2974H1341.21M1207.66 56.2974H1163.14M1207.66 56.2974L1199.99 50.3076M1341.21 56.2974L1351.84 62.5253M1199.99 50.3076H1156.32M1316.59 69.0063L1327.15 75.7559M1316.59 69.0063H1362.91M1351.84 62.5253L1362.91 69.0063M1362.91 69.0063L1374.44 75.7559M1279.86 75.7559L1289.88 82.7916M1279.86 75.7559H1327.15M1279.86 75.7559H1232.58M1327.15 75.7559L1338.16 82.7916M1327.15 75.7559H1374.44M1374.44 75.7559L1386.45 82.7916M1289.88 82.7916H1338.16M1289.88 82.7916H1241.59M1349.65 90.1315L1338.16 82.7916M1349.65 90.1315L1361.65 97.7955M1349.65 90.1315H1398.98M1338.16 82.7916H1386.45M1241.59 82.7916H1193.3M1241.59 82.7916L1232.58 75.7559M1386.45 82.7916L1398.98 90.1315M1232.58 75.7559H1185.29M1361.65 97.7955L1374.19 105.807M1361.65 97.7955H1412.07M1398.98 90.1315L1412.07 97.7955M1412.07 97.7955L1425.75 105.807M1322.63 105.807L1334.55 114.188M1322.63 105.807H1374.19M1322.63 105.807H1271.06M1374.19 105.807L1387.31 114.188M1374.19 105.807H1425.75M1425.75 105.807L1440.07 114.188M1334.55 114.188H1387.31M1334.55 114.188H1281.8M1401.05 122.967L1387.31 114.188M1401.05 122.967L1415.46 132.171M1401.05 122.967H1455.06M1387.31 114.188H1440.07M1281.8 114.188H1229.04M1281.8 114.188L1271.06 105.807M1440.07 114.188L1455.06 122.967M1271.06 105.807H1219.5M1415.46 132.171L1430.58 141.833M1415.46 132.171H1470.77M1455.06 122.967L1470.77 132.171M1470.77 132.171L1487.27 141.833M1373.89 141.833L1388.34 151.988M1373.89 141.833H1430.58M1373.89 141.833H1317.21M1430.58 141.833L1446.48 151.988M1430.58 141.833H1487.27M1487.27 141.833L1504.61 151.988M1388.34 151.988H1446.48M1388.34 151.988H1330.21M1463.21 162.673L1446.48 151.988M1463.21 162.673L1480.83 173.933M1463.21 162.673H1522.86M1446.48 151.988H1504.61M1330.21 151.988H1272.08M1330.21 151.988L1317.21 141.833M1504.61 151.988L1522.86 162.673M1504.61 151.988H1562.75M1317.21 141.833H1260.52M1480.83 173.933L1499.43 185.815M1480.83 173.933H1542.09M1522.86 162.673L1542.09 173.933M1562.75 151.988H1615.56M1542.09 173.933L1562.38 185.815M1436.48 185.815L1454.35 198.37M1436.48 185.815H1499.43M1436.48 185.815H1373.53M1499.43 185.815L1519.08 198.37M1499.43 185.815H1562.38M1562.38 185.815L1583.82 198.37M1562.38 185.815H1615.56M1454.35 198.37H1519.08M1454.35 198.37H1389.61M1539.89 211.66L1519.08 198.37M1539.89 211.66L1561.94 225.749M1539.89 211.66H1606.51M1519.08 198.37H1583.82M1389.61 198.37H1324.88M1389.61 198.37L1373.53 185.815M1583.82 198.37L1606.51 211.66M1583.82 198.37H1615.56M1373.53 185.815H1310.58M1561.94 225.749L1585.36 240.713M1561.94 225.749H1615.56M1606.51 211.66H1615.56M1606.51 211.66L1615.56 216.961M1514.6 240.713L1537.26 256.635M1514.6 240.713H1585.36M1514.6 240.713H1443.84M1585.36 240.713L1610.29 256.635M1585.36 240.713H1615.56M1537.26 256.635H1610.29M1537.26 256.635H1464.23M1610.29 256.635L1615.56 260.006M1610.29 256.635H1615.56M1464.23 256.635H1391.21M1464.23 256.635L1443.84 240.713M1443.84 240.713H1373.08M1614.86 311.167H1534.08M1614.86 311.167H1615.56M1614.86 311.167L1615.56 311.66M1534.08 311.167H1453.29M1534.08 311.167L1560.78 332.016M1050.35 28.4804L1051.99 30.3936L1052.54 31.0376L1054.76 33.641M1050.35 28.4804H1090.91M1050.35 28.4804H1009.79M1085.95 23.5001L1082.34 19.8781L1081.16 18.6909M1085.95 23.5001L1090.28 27.848L1090.91 28.4804M1085.95 23.5001H1125.8M1081.16 18.6909H1120.33M1081.16 18.6909L1076.53 14.0445M1038.03 14.0445H1076.53M1038.03 14.0445L1036.57 12.3422L1034.19 9.55193M1038.03 14.0445H999.523M1090.91 28.4804L1092.18 29.7528L1096.05 33.641M1090.91 28.4804H1131.47M1125.8 23.5001L1120.33 18.6909M1125.8 23.5001L1131.47 28.4804M1120.33 18.6909L1116.34 15.1912L1115.04 14.0445M1076.53 14.0445H1115.04M1076.53 14.0445L1072.06 9.55193M1131.47 28.4804L1137.35 33.641M1153.54 14.0445L1152.81 13.474L1147.79 9.55193M1153.54 14.0445H1115.04M1115.04 14.0445L1113.1 12.3422L1109.92 9.55193M1054.76 33.641H1096.05M1054.76 33.641H1013.47M1101.38 38.9918L1096.05 33.641M1101.38 38.9918L1106.91 44.5435M1101.38 38.9918H1143.44M1096.05 33.641H1137.35M1013.47 33.641H972.173M1013.47 33.641L1009.79 28.4804M1137.35 33.641L1143.44 38.9918M1009.79 28.4804H969.236M1106.91 44.5435L1110.48 48.1208L1111.2 48.8459L1112.66 50.3076M1106.91 44.5435H1149.76M1143.44 38.9918L1149.76 44.5435M1149.76 44.5435L1156.32 50.3076M1068.99 50.3076L1074.1 56.2974M1068.99 50.3076H1112.66M1068.99 50.3076H1025.33M1112.66 50.3076L1118.62 56.2974M1112.66 50.3076H1156.32M1156.32 50.3076L1163.14 56.2974M1074.1 56.2974H1118.62M1074.1 56.2974H1029.59M1124.83 62.5253L1120.92 58.604L1120.15 57.831L1118.62 56.2974M1124.83 62.5253L1131.28 69.0063M1124.83 62.5253H1170.23M1118.62 56.2974H1163.14M1029.59 56.2974H985.07M1029.59 56.2974L1025.33 50.3076M1163.14 56.2974L1170.23 62.5253M1025.33 50.3076H981.66M1131.28 69.0063L1138.01 75.7559M1131.28 69.0063H1177.61M1170.23 62.5253L1177.61 69.0063M1177.61 69.0063L1185.29 75.7559M1090.72 75.7559L1093.69 79.2365L1094.44 80.1187L1096.73 82.7916M1090.72 75.7559H1138.01M1090.72 75.7559H1043.43M1138.01 75.7559L1145.01 82.7916M1138.01 75.7559H1185.29M1185.29 75.7559L1193.3 82.7916M1096.73 82.7916H1145.01M1096.73 82.7916H1048.44M1152.32 90.1315L1145.01 82.7916M1152.32 90.1315L1159.96 97.7955M1152.32 90.1315H1201.66M1145.01 82.7916H1193.3M1048.44 82.7916H1000.15M1048.44 82.7916L1047.17 81.0049L1043.43 75.7559M1193.3 82.7916L1201.66 90.1315M1043.43 75.7559H996.146M1159.96 97.7955L1167.94 105.807M1159.96 97.7955H1210.38M1201.66 90.1315L1210.38 97.7955M1210.38 97.7955L1219.5 105.807M1116.38 105.807L1123.53 114.188M1116.38 105.807H1167.94M1116.38 105.807H1064.81M1167.94 105.807L1176.29 114.188M1167.94 105.807H1219.5M1219.5 105.807L1229.04 114.188M1123.53 114.188H1176.29M1123.53 114.188H1070.78M1185.03 122.967L1176.29 114.188M1185.03 122.967L1194.2 132.171M1185.03 122.967H1239.04M1176.29 114.188H1229.04M1070.78 114.188H1018.02M1070.78 114.188L1064.81 105.807M1229.04 114.188L1239.04 122.967M1064.81 105.807H1013.25M1194.2 132.171L1203.83 141.833M1194.2 132.171H1249.52M1239.04 122.967L1249.52 132.171M1249.52 132.171L1260.52 141.833M1147.14 141.833L1155.81 151.988M1147.14 141.833H1203.83M1147.14 141.833H1090.45M1203.83 141.833L1213.94 151.988M1203.83 141.833H1260.52M1260.52 141.833L1272.08 151.988M1155.81 151.988H1213.94M1155.81 151.988H1097.67M1224.59 162.673L1213.94 151.988M1224.59 162.673L1235.8 173.933M1224.59 162.673H1284.24M1213.94 151.988H1272.08M1097.67 151.988H1039.54M1097.67 151.988L1090.45 141.833M1272.08 151.988L1284.24 162.673M1090.45 141.833H1033.76M1235.8 173.933L1247.64 185.815M1235.8 173.933H1297.06M1284.24 162.673L1297.06 173.933M1297.06 173.933L1310.58 185.815M1184.69 185.815L1195.41 198.37M1184.69 185.815H1247.64M1184.69 185.815H1121.74M1247.64 185.815L1260.14 198.37M1247.64 185.815H1310.58M1310.58 185.815L1324.88 198.37M1195.41 198.37H1260.14M1195.41 198.37H1130.67M1273.38 211.66L1260.14 198.37M1273.38 211.66L1287.42 225.749M1273.38 211.66H1340.01M1260.14 198.37H1324.88M1130.67 198.37H1065.94M1130.67 198.37L1121.74 185.815M1324.88 198.37L1340.01 211.66M1121.74 185.815H1058.79M1287.42 225.749L1302.32 240.713M1287.42 225.749H1356.05M1340.01 211.66L1356.05 225.749M1356.05 225.749L1373.08 240.713M1231.56 240.713L1245.16 256.635M1231.56 240.713H1302.32M1231.56 240.713H1160.8M1302.32 240.713L1318.18 256.635M1302.32 240.713H1373.08M1373.08 240.713L1391.21 256.635M1245.16 256.635H1318.18M1245.16 256.635H1172.13M1335.09 273.61L1318.18 256.635M1335.09 273.61L1353.16 291.746M1335.09 273.61H1410.53M1318.18 256.635H1391.21M1172.13 256.635H1099.1M1172.13 256.635L1160.8 240.713M1391.21 256.635L1410.53 273.61M1160.8 240.713H1090.04M1353.16 291.746L1372.5 311.167M1353.16 291.746H1431.18M1410.53 273.61L1431.18 291.746M1431.18 291.746L1453.29 311.167M1291.72 311.167L1309.52 332.016M1291.72 311.167H1372.5M1291.72 311.167H1210.93M1372.5 311.167L1393.27 332.016M1372.5 311.167H1453.29M1453.29 311.167L1477.02 332.016M1309.52 332.016H1393.27M1309.52 332.016H1225.76M1415.62 354.453L1393.27 332.016M1415.62 354.453L1439.74 378.669M1415.62 354.453H1502.57M1393.27 332.016H1477.02M1225.76 332.016H1142.01M1225.76 332.016L1210.93 311.167M1477.02 332.016L1502.57 354.453M1477.02 332.016H1560.78M1210.93 311.167H1130.15M1439.74 378.669L1465.86 404.884M1439.74 378.669H1530.14M1502.57 354.453L1530.14 378.669M1560.78 332.016H1615.56M1530.14 378.669L1559.98 404.884M1530.14 378.669H1615.56M1371.73 404.884L1396.04 433.356M1371.73 404.884H1465.86M1371.73 404.884H1277.61M1465.86 404.884L1494.22 433.356M1465.86 404.884H1559.98M1559.98 404.884L1592.39 433.356M1559.98 404.884H1615.56M1396.04 433.356H1494.22M1396.04 433.356H1297.87M1525.13 464.389L1494.22 433.356M1525.13 464.389L1558.96 498.345M1525.13 464.389H1615.56M1494.22 433.356H1592.39M1297.87 433.356H1199.7M1297.87 433.356L1277.61 404.884M1592.39 433.356H1615.56M1592.39 433.356L1615.56 453.71M1277.61 404.884H1183.49M1558.96 498.345L1596.13 535.659M1558.96 498.345H1615.56M1483.39 535.659L1518.57 576.854M1483.39 535.659H1596.13M1483.39 535.659H1370.66M1596.13 535.659L1615.56 555.174M1596.13 535.659H1615.56M1518.57 576.854H1399.97M1518.57 576.854L1615.56 576.853M1399.97 576.854H1281.38M1399.97 576.854L1370.66 535.659M1370.66 535.659H1257.93M888.118 28.4804L888.299 29.1154L888.48 29.7528L888.663 30.3936L888.845 31.0376L889.4 32.9854L889.586 33.641M888.118 28.4804H928.677M888.118 28.4804H847.559M926.55 23.5001L925.004 19.8781L924.498 18.6909M926.55 23.5001L927.871 26.5921L928.677 28.4804M926.55 23.5001H966.401M924.498 18.6909H963.664M924.498 18.6909L923.004 15.1912L922.513 14.0445M884.009 14.0445L883.847 13.474L883.206 11.2187L882.73 9.55193M884.009 14.0445H922.513M884.009 14.0445H845.505M928.677 28.4804L928.948 29.1154L929.22 29.7528L929.493 30.3936L929.769 31.0376L930.88 33.641M928.677 28.4804H969.236M966.401 23.5001L964.339 19.8781L963.664 18.6909M966.401 23.5001L969.236 28.4804M963.664 18.6909L962.329 16.3478L961.344 14.6166L961.019 14.0445M922.513 14.0445L922.271 13.474L921.788 12.3422L921.307 11.2187L921.07 10.6606L920.596 9.55193M922.513 14.0445H961.019M969.236 28.4804L971.429 32.3331L972.173 33.641M999.523 14.0445L997.116 10.6606L996.327 9.55193M999.523 14.0445H961.019M961.019 14.0445L958.777 10.105L958.461 9.55193M889.586 33.641H930.88M889.586 33.641H848.293M933.164 38.9918L930.88 33.641M933.164 38.9918L935.534 44.5435M933.164 38.9918H975.218M930.88 33.641H972.173M848.293 33.641H807M848.293 33.641L847.559 28.4804M972.173 33.641L975.218 38.9918M847.559 28.4804H807M935.534 44.5435L936.141 45.9638L937.062 48.1208L937.995 50.3076M935.534 44.5435H978.38M975.218 38.9918L975.608 39.6739L978.38 44.5435M978.38 44.5435L978.782 45.252L979.188 45.9638L979.595 46.6798L981.66 50.3076M894.33 50.3076L896.035 56.2974M894.33 50.3076H937.995M894.33 50.3076H850.665M937.995 50.3076L940.552 56.2974M937.995 50.3076H981.66M981.66 50.3076L984.204 54.7778L984.637 55.536L985.07 56.2974M896.035 56.2974H940.552M896.035 56.2974H851.517M943.211 62.5253L943.551 63.3215L943.893 64.121L944.235 64.9254L945.978 69.0063M943.211 62.5253L941.869 59.3804L941.537 58.604L941.207 57.831L940.552 56.2974M943.211 62.5253H988.615M940.552 56.2974H985.07M851.517 56.2974H807M851.517 56.2974L850.665 50.3076M985.07 56.2974L988.615 62.5253M850.665 50.3076H807M945.978 69.0063L948.493 74.8969L948.859 75.7559M945.978 69.0063H992.304M988.615 62.5253L989.523 64.121L992.304 69.0063M992.304 69.0063L993.726 71.5047L996.146 75.7559M901.573 75.7559L902.564 79.2365L902.814 80.1187L903.575 82.7916M901.573 75.7559H948.859M901.573 75.7559H854.287M948.859 75.7559L951.863 82.7916M948.859 75.7559H996.146M996.146 75.7559L1000.15 82.7916M903.575 82.7916H951.863M903.575 82.7916H855.287M954.996 90.1315L951.863 82.7916M954.996 90.1315L958.268 97.7955M954.996 90.1315H1004.33M951.863 82.7916H1000.15M855.287 82.7916H807M855.287 82.7916L855.033 81.0049L854.533 77.4871L854.287 75.7559M1000.15 82.7916L1004.33 90.1315M854.287 75.7559H807M958.268 97.7955L960.818 103.77L961.689 105.807M958.268 97.7955H1008.69M1004.33 90.1315L1008.69 97.7955M1008.69 97.7955L1010.95 101.756L1013.25 105.807M910.126 105.807L912.511 114.188M910.126 105.807H961.689M910.126 105.807H858.563M961.689 105.807L965.266 114.188M961.689 105.807H1013.25M1013.25 105.807L1018.02 114.188M912.511 114.188H965.266M912.511 114.188H859.755M969.014 122.967L968.06 120.734L965.266 114.188M969.014 122.967L972.943 132.171M969.014 122.967H1023.02M965.266 114.188H1018.02M859.755 114.188H807M859.755 114.188L858.563 105.807M1018.02 114.188L1023.02 122.967M858.563 105.807H807M972.943 132.171L977.068 141.833M972.943 132.171H1028.26M1023.02 122.967L1028.26 132.171M1028.26 132.171L1033.76 141.833M920.379 141.833L923.269 151.988M920.379 141.833H977.068M920.379 141.833H863.69M977.068 141.833L981.403 151.988M977.068 141.833H1033.76M1033.76 141.833L1039.54 151.988M923.269 151.988H981.403M923.269 151.988H865.134M985.966 162.673L981.403 151.988M985.966 162.673L990.772 173.933M985.966 162.673H1045.62M981.403 151.988H1039.54M865.134 151.988H807M865.134 151.988L863.866 143.075L863.69 141.833M1039.54 151.988L1045.62 162.673M863.69 141.833H807M990.772 173.933L995.844 185.815M990.772 173.933H1052.03M1045.62 162.673L1050.39 171.062L1052.03 173.933M1052.03 173.933L1058.79 185.815M932.896 185.815L936.47 198.37M932.896 185.815H995.844M932.896 185.815H869.948M995.844 185.815L1001.2 198.37M995.844 185.815H1058.79M1058.79 185.815L1065.94 198.37M936.47 198.37H1001.2M936.47 198.37H871.735M1006.88 211.66L1001.2 198.37M1006.88 211.66L1012.89 225.749M1006.88 211.66H1073.5M1001.2 198.37H1065.94M871.735 198.37H807M871.735 198.37L869.948 185.815M1065.94 198.37L1073.5 211.66M869.948 185.815H807M1012.89 225.749L1019.28 240.713M1012.89 225.749H1081.52M1073.5 211.66L1081.52 225.749M1081.52 225.749L1090.04 240.713M948.521 240.713L953.052 256.635M948.521 240.713H1019.28M948.521 240.713H877.76M1019.28 240.713L1026.08 256.635M1019.28 240.713H1090.04M1090.04 240.713L1099.1 256.635M953.052 256.635H1026.08M953.052 256.635H880.026M1033.32 273.61L1026.08 256.635M1033.32 273.61L1041.07 291.746M1033.32 273.61H1108.77M1026.08 256.635H1099.1M880.026 256.635H807M880.026 256.635L877.76 240.713M1099.1 256.635L1108.77 273.61M877.76 240.713H807M1041.07 291.746L1049.36 311.167M1041.07 291.746H1119.09M1108.77 273.61L1119.09 291.746M1119.09 291.746L1130.15 311.167M968.572 311.167L974.506 332.016M968.572 311.167H1049.36M968.572 311.167H887.786M1049.36 311.167L1058.26 332.016M1049.36 311.167H1130.15M1130.15 311.167L1142.01 332.016M974.506 332.016H1058.26M974.506 332.016H890.753M1067.84 354.453L1058.26 332.016M1067.84 354.453L1078.18 378.669M1067.84 354.453H1154.78M1058.26 332.016H1142.01M890.753 332.016H807M890.753 332.016L887.786 311.167M1142.01 332.016L1154.78 354.453M887.786 311.167H807M1078.18 378.669L1089.37 404.884M1078.18 378.669H1168.57M1154.78 354.453L1168.57 378.669M1168.57 378.669L1183.49 404.884M995.245 404.884L1003.35 433.356M995.245 404.884H1089.37M995.245 404.884H901.123M1089.37 404.884L1101.52 433.356M1089.37 404.884H1183.49M1183.49 404.884L1199.7 433.356M1003.35 433.356H1101.52M1003.35 433.356H905.174M1114.77 464.389L1101.52 433.356M1114.77 464.389L1129.27 498.345M1114.77 464.389H1217.36M1101.52 433.356H1199.7M905.174 433.356H807M905.174 433.356L901.123 404.884M1199.7 433.356L1217.36 464.389M901.123 404.884H807M1129.27 498.345L1145.2 535.659M1129.27 498.345H1236.69M1217.36 464.389L1236.69 498.345M1236.69 498.345L1257.93 535.659M1032.46 535.659L1044.19 576.854M1032.46 535.659H1145.2M1032.46 535.659H919.732M1145.2 535.659L1162.78 576.854M1145.2 535.659H1257.93M1257.93 535.659L1281.38 576.854M1162.78 576.854H1044.19M1162.78 576.854H1281.38M1044.19 576.854H925.595M925.595 576.854H807M925.595 576.854L919.732 535.659M919.732 535.659H807M725.883 28.4804L725.701 29.1154L725.52 29.7528L725.338 30.3936L725.155 31.0376L724.786 32.3331L724.6 32.9854L724.414 33.641M725.883 28.4804H766.441M725.883 28.4804H685.323M767.15 23.5001L767.834 18.6909M767.15 23.5001L766.441 28.4804M767.15 23.5001H807M767.834 18.6909L767.918 18.1014L768.002 17.5144L768.085 16.9299L768.496 14.0445M767.834 18.6909H807M729.991 14.0445L730.153 13.474L730.794 11.2187L731.27 9.55193M729.991 14.0445H768.496M729.991 14.0445H691.486M766.441 28.4804L766.35 29.1154L766.26 29.7528L766.168 30.3936L765.707 33.641M766.441 28.4804H807M807 23.5001V18.6909M807 23.5001V28.4804M807 18.6909V14.0445M768.496 14.0445H807M768.496 14.0445L768.737 12.3422L768.818 11.7792L769.135 9.55193M807 28.4804V33.641M845.505 14.0445L845.263 12.3422L845.182 11.7792L845.103 11.2187L845.023 10.6606L844.944 10.105L844.865 9.55193M845.505 14.0445H807M807 14.0445V9.55193M724.414 33.641H765.707M724.414 33.641H683.12M764.945 38.9918L764.848 39.6739L764.751 40.3601L764.155 44.5435M764.945 38.9918L765.707 33.641M764.945 38.9918H807M765.707 33.641H807M683.12 33.641H641.827M683.12 33.641L683.678 32.3331L683.956 31.6841L684.231 31.0376L684.507 30.3936L684.78 29.7528L685.052 29.1154L685.323 28.4804M807 33.641V38.9918M685.323 28.4804H644.764M764.155 44.5435L763.335 50.3076M764.155 44.5435H807M807 38.9918V44.5435M807 44.5435V50.3076M719.67 50.3076L717.965 56.2974M719.67 50.3076H763.335M719.67 50.3076H676.005M763.335 50.3076L762.483 56.2974M763.335 50.3076H807M807 50.3076V56.2974M717.965 56.2974H762.483M717.965 56.2974H673.448M761.597 62.5253L762.483 56.2974M761.597 62.5253L760.674 69.0063M761.597 62.5253H807M762.483 56.2974H807M673.448 56.2974H628.931M673.448 56.2974L676.005 50.3076M807 56.2974V62.5253M676.005 50.3076H632.34M760.674 69.0063L760.319 71.5047L759.958 74.042L759.713 75.7559M760.674 69.0063H807M807 62.5253V69.0063M807 69.0063V75.7559M712.427 75.7559L711.436 79.2365L711.186 80.1187L710.425 82.7916M712.427 75.7559H759.713M712.427 75.7559H665.141M759.713 75.7559L759.467 77.4871L758.967 81.0049L758.713 82.7916M759.713 75.7559H807M807 75.7559V82.7916M710.425 82.7916H758.713M710.425 82.7916H662.137M757.668 90.1315L757.801 89.1964L758.713 82.7916M757.668 90.1315L756.578 97.7955M757.668 90.1315H807M758.713 82.7916H807M662.137 82.7916H613.85M662.137 82.7916L665.141 75.7559M807 82.7916V90.1315M665.141 75.7559H617.854M756.578 97.7955L755.437 105.807M756.578 97.7955H807M807 90.1315V97.7955M807 97.7955V105.807M703.874 105.807L701.489 114.188M703.874 105.807H755.437M703.874 105.807H652.312M755.437 105.807L754.245 114.188M755.437 105.807H807M807 105.807V114.188M701.489 114.188H754.245M701.489 114.188H648.734M752.995 122.967L754.245 114.188M752.995 122.967L751.686 132.171M752.995 122.967H807M754.245 114.188H807M648.734 114.188H595.978M648.734 114.188L652.312 105.807M807 114.188V122.967M652.312 105.807H600.749M751.686 132.171L750.31 141.833M751.686 132.171H807M807 122.967V132.171M807 132.171V141.833M693.621 141.833L690.731 151.988M693.621 141.833H750.31M693.621 141.833H636.932M750.31 141.833L748.866 151.988M750.31 141.833H807M807 141.833V151.988M690.731 151.988H748.866M690.731 151.988H632.597M747.345 162.673L748.866 151.988M747.345 162.673L745.743 173.933M747.345 162.673H807M748.866 151.988H807M632.597 151.988H574.462M632.597 151.988L636.932 141.833M807 151.988V162.673M636.932 141.833H580.242M745.743 173.933L744.052 185.815M745.743 173.933H807M807 162.673V173.933M807 173.933V185.815M681.104 185.815L677.53 198.37M681.104 185.815H744.052M681.104 185.815H618.156M744.052 185.815L742.265 198.37M744.052 185.815H807M807 185.815V198.37M677.53 198.37H742.265M677.53 198.37H612.795M740.374 211.66L742.265 198.37M740.374 211.66L738.369 225.749M740.374 211.66H807M742.265 198.37H807M612.795 198.37H548.061M612.795 198.37L618.156 185.815M807 198.37V211.66M618.156 185.815H555.207M738.369 225.749L736.24 240.713M738.369 225.749H807M807 211.66V225.749M807 225.749V240.713M665.479 240.713L660.948 256.635M665.479 240.713H736.24M665.479 240.713H594.719M736.24 240.713L733.974 256.635M736.24 240.713H807M807 240.713V256.635M660.948 256.635H733.974M660.948 256.635H587.922M731.558 273.61L733.974 256.635M731.558 273.61L728.978 291.746M731.558 273.61H807M733.974 256.635H807M587.922 256.635H514.896M587.922 256.635L594.719 240.713M807 256.635V273.61M594.719 240.713H523.959M728.978 291.746L726.214 311.167M728.978 291.746H807M807 273.61V291.746M807 291.746V311.167M645.428 311.167L639.494 332.016M645.428 311.167H726.214M645.428 311.167H564.641M726.214 311.167L723.247 332.016M726.214 311.167H807M807 311.167V332.016M639.494 332.016H723.247M639.494 332.016H555.741M720.054 354.453L723.247 332.016M720.054 354.453L716.608 378.669M720.054 354.453H807M723.247 332.016H807M555.741 332.016H471.988M555.741 332.016L564.641 311.167M807 332.016V354.453M564.641 311.167H483.855M716.608 378.669L712.877 404.884M716.608 378.669H807M807 354.453V378.669M807 378.669V404.884M618.755 404.884L610.652 433.356M618.755 404.884H712.877M618.755 404.884H524.632M712.877 404.884L708.826 433.356M712.877 404.884H807M807 404.884V433.356M610.652 433.356H708.826M610.652 433.356H512.478M704.41 464.389L708.826 433.356M704.41 464.389L699.578 498.345M704.41 464.389H807M708.826 433.356H807M512.478 433.356H414.304M512.478 433.356L524.632 404.884M807 433.356V464.389M524.632 404.884H430.51M699.578 498.345L694.268 535.659M699.578 498.345H807M807 464.389V498.345M807 498.345V535.659M581.536 535.659L569.812 576.854M581.536 535.659H694.268M581.536 535.659H468.804M694.268 535.659L688.406 576.854M694.268 535.659H807M807 535.659V576.854M688.406 576.854H569.812M688.406 576.854H807M569.812 576.854H451.217M451.217 576.854H332.623M451.217 576.854L468.804 535.659M468.804 535.659H356.071M563.646 28.4804L561.463 31.0376L559.241 33.641M563.646 28.4804H604.205M563.646 28.4804H523.088M607.749 23.5001L611.171 18.6909M607.749 23.5001L604.205 28.4804M607.749 23.5001H647.599M611.171 18.6909H650.336M611.171 18.6909L613.66 15.1912L614.477 14.0445M575.972 14.0445H614.477M575.972 14.0445L577.426 12.3422L579.808 9.55193M575.972 14.0445H537.468M604.205 28.4804L600.534 33.641M604.205 28.4804H644.764M647.599 23.5001L650.336 18.6909M647.599 23.5001L644.764 28.4804M650.336 18.6909L651.671 16.3478L652.656 14.6166L652.981 14.0445M614.477 14.0445H652.981M614.477 14.0445L616.884 10.6606L617.673 9.55193M644.764 28.4804L642.571 32.3331L641.827 33.641M691.486 14.0445L691.729 13.474L692.213 12.3422L692.93 10.6606L693.404 9.55193M691.486 14.0445H652.981M652.981 14.0445L653.305 13.474L653.951 12.3422L655.538 9.55193M559.241 33.641H600.534M559.241 33.641H517.947M596.726 38.9918L597.21 38.3122L597.691 37.6351L599.595 34.9597L600.534 33.641M596.726 38.9918L593.777 43.1355L592.776 44.5435M596.726 38.9918H638.782M600.534 33.641H641.827M517.947 33.641H476.653M517.947 33.641L521.819 29.7528L523.088 28.4804M641.827 33.641L638.782 38.9918M523.088 28.4804H482.528M592.776 44.5435L592.272 45.252L591.765 45.9638L590.231 48.1208L589.714 48.8459L588.675 50.3076M592.776 44.5435H635.621M638.782 38.9918L638.392 39.6739L635.621 44.5435M635.621 44.5435L635.218 45.252L634.812 45.9638L634.405 46.6798L632.34 50.3076M545.01 50.3076L539.896 56.2974M545.01 50.3076H588.675M545.01 50.3076H501.345M588.675 50.3076L584.413 56.2974M588.675 50.3076H632.34M632.34 50.3076L628.931 56.2974M539.896 56.2974H584.413M539.896 56.2974H495.378M579.982 62.5253L584.413 56.2974M579.982 62.5253L575.371 69.0063M579.982 62.5253H625.385M584.413 56.2974H628.931M495.378 56.2974H450.861M495.378 56.2974L501.345 50.3076M628.931 56.2974L625.385 62.5253M501.345 50.3076H457.679M575.371 69.0063L570.568 75.7559M575.371 69.0063H621.696M625.385 62.5253L624.477 64.121L621.696 69.0063M621.696 69.0063L620.274 71.5047L618.829 74.042L617.854 75.7559M523.281 75.7559L520.309 79.2365L517.275 82.7916M523.281 75.7559H570.568M523.281 75.7559H475.995M570.568 75.7559L565.562 82.7916M570.568 75.7559H617.854M617.854 75.7559L613.85 82.7916M517.275 82.7916H565.562M517.275 82.7916H468.987M560.34 90.1315L565.562 82.7916M560.34 90.1315L554.886 97.7955M560.34 90.1315H609.672M565.562 82.7916H613.85M468.987 82.7916H420.699M468.987 82.7916L475.995 75.7559M613.85 82.7916L609.672 90.1315M475.995 75.7559H428.709M554.886 97.7955L553.485 99.7648L549.187 105.807M554.886 97.7955H605.309M609.672 90.1315L605.309 97.7955M605.309 97.7955L604.75 98.7777L603.055 101.756L600.749 105.807M497.624 105.807L490.467 114.188M497.624 105.807H549.187M497.624 105.807H446.061M549.187 105.807L543.223 114.188M549.187 105.807H600.749M600.749 105.807L595.978 114.188M490.467 114.188H543.223M490.467 114.188H437.712M536.977 122.967L540.915 117.433L543.223 114.188M536.977 122.967L530.427 132.171M536.977 122.967H590.981M543.223 114.188H595.978M437.712 114.188H384.956M437.712 114.188L446.061 105.807M595.978 114.188L590.981 122.967M446.061 105.807H394.498M530.427 132.171L523.553 141.833M530.427 132.171H585.742M590.981 122.967L585.742 132.171M585.742 132.171L580.242 141.833M466.863 141.833L458.193 151.988M466.863 141.833H523.553M466.863 141.833H410.174M523.553 141.833L516.328 151.988M523.553 141.833H580.242M580.242 141.833L574.462 151.988M458.193 151.988H516.328M458.193 151.988H400.059M508.725 162.673L516.328 151.988M508.725 162.673L500.713 173.933M508.725 162.673H568.38M516.328 151.988H574.462M400.059 151.988H341.925M400.059 151.988L410.174 141.833M574.462 151.988L568.38 162.673M410.174 141.833H353.485M500.713 173.933L492.26 185.815M500.713 173.933H561.97M568.38 162.673L561.97 173.933M561.97 173.933L555.207 185.815M429.311 185.815L418.591 198.37M429.311 185.815H492.26M429.311 185.815H366.363M492.26 185.815L483.326 198.37M492.26 185.815H555.207M555.207 185.815L548.061 198.37M418.591 198.37H483.326M418.591 198.37H353.856M473.87 211.66L483.326 198.37M473.87 211.66L463.845 225.749M473.87 211.66H540.496M483.326 198.37H548.061M353.856 198.37H289.121M353.856 198.37L366.363 185.815M548.061 198.37L540.496 211.66M366.363 185.815H303.415M463.845 225.749L453.198 240.713M463.845 225.749H532.476M540.496 211.66L532.476 225.749M532.476 225.749L523.959 240.713M382.438 240.713L368.844 256.635M382.438 240.713H453.198M382.438 240.713H311.678M453.198 240.713L441.87 256.635M453.198 240.713H523.959M523.959 240.713L514.896 256.635M368.844 256.635H441.87M368.844 256.635H295.818M429.792 273.61L441.87 256.635M429.792 273.61L416.887 291.746M429.792 273.61H505.234M441.87 256.635H514.896M295.818 256.635H222.792M295.818 256.635L311.678 240.713M514.896 256.635L505.234 273.61M311.678 240.713H240.917M416.887 291.746L403.069 311.167M416.887 291.746H494.91M505.234 273.61L494.91 291.746M494.91 291.746L483.855 311.167M322.282 311.167L304.482 332.016M322.282 311.167H403.069M322.282 311.167H241.496M403.069 311.167L388.235 332.016M403.069 311.167H483.855M483.855 311.167L471.988 332.016M304.482 332.016H388.235M304.482 332.016H220.729M372.27 354.453L388.235 332.016M372.27 354.453L355.04 378.669M372.27 354.453H459.216M388.235 332.016H471.988M220.729 332.016H136.976M220.729 332.016L241.496 311.167M471.988 332.016L459.216 354.453M241.496 311.167H160.709M355.04 378.669L336.388 404.884M355.04 378.669H445.432M459.216 354.453L445.432 378.669M445.432 378.669L430.51 404.884M242.266 404.884L217.956 433.356M242.266 404.884H336.388M242.266 404.884H148.143M336.388 404.884L316.13 433.356M336.388 404.884H430.51M430.51 404.884L414.304 433.356M217.956 433.356H316.13M217.956 433.356H119.782M294.049 464.389L316.13 433.356M294.049 464.389L269.888 498.345M294.049 464.389H396.639M316.13 433.356H414.304M119.782 433.356H21.6076M119.782 433.356L148.143 404.884M414.304 433.356L396.639 464.389M148.143 404.884H54.0209M269.888 498.345L243.34 535.659M269.888 498.345H377.311M396.639 464.389L377.311 498.345M377.311 498.345L356.071 535.659M130.607 535.659L95.4346 576.854M130.607 535.659H243.34M130.607 535.659H17.8747M243.34 535.659L214.029 576.854M243.34 535.659H356.071M356.071 535.659L332.623 576.854M214.029 576.854H95.4346M214.029 576.854H332.623M95.4346 576.854L-1.56455 576.853M17.8747 535.659L-1.56455 555.174M17.8747 535.659H-1.56455M401.411 28.4804L394.067 33.641M401.411 28.4804H441.969M401.411 28.4804H360.852M448.348 23.5001L454.507 18.6909M448.348 23.5001L441.969 28.4804M448.348 23.5001H488.198M454.507 18.6909H493.673M454.507 18.6909L460.459 14.0445M421.953 14.0445H460.459M421.953 14.0445L424.376 12.3422L428.347 9.55193M421.953 14.0445H383.449M441.969 28.4804L435.36 33.641M441.969 28.4804H482.528M488.198 23.5001L493.673 18.6909M488.198 23.5001L482.528 28.4804M493.673 18.6909L497.658 15.1912L498.963 14.0445M460.459 14.0445L461.188 13.474L466.212 9.55193M460.459 14.0445H498.963M482.528 28.4804L476.653 33.641M537.468 14.0445L541.942 9.55193M537.468 14.0445H498.963M498.963 14.0445L500.901 12.3422L504.077 9.55193M394.067 33.641H435.36M394.067 33.641H352.774M428.508 38.9918L435.36 33.641M428.508 38.9918L421.397 44.5435M428.508 38.9918H470.562M435.36 33.641H476.653M352.774 33.641H311.48M352.774 33.641L360.852 28.4804M476.653 33.641L470.562 38.9918M360.852 28.4804H320.293M421.397 44.5435L419.577 45.9638L414.014 50.3076M421.397 44.5435H464.242M470.562 38.9918L464.242 44.5435M464.242 44.5435L457.679 50.3076M370.349 50.3076L369.302 51.0442L361.826 56.2974M370.349 50.3076H414.014M370.349 50.3076H326.684M414.014 50.3076L406.344 56.2974M414.014 50.3076H457.679M457.679 50.3076L456.842 51.0442L450.861 56.2974M361.826 56.2974H406.344M361.826 56.2974H317.309M398.367 62.5253L406.344 56.2974M398.367 62.5253L390.067 69.0063M398.367 62.5253H443.771M406.344 56.2974H450.861M317.309 56.2974H272.792M317.309 56.2974L326.684 50.3076M450.861 56.2974L443.771 62.5253M326.684 50.3076H283.019M390.067 69.0063L381.422 75.7559M390.067 69.0063H436.393M443.771 62.5253L436.393 69.0063M436.393 69.0063L428.709 75.7559M334.136 75.7559L324.124 82.7916M334.136 75.7559H381.422M334.136 75.7559H286.85M381.422 75.7559L372.412 82.7916M381.422 75.7559H428.709M428.709 75.7559L420.699 82.7916M324.124 82.7916H372.412M324.124 82.7916H275.836M363.011 90.1315L372.412 82.7916M363.011 90.1315L353.195 97.7955M363.011 90.1315H412.343M372.412 82.7916H420.699M275.836 82.7916H227.549M275.836 82.7916L286.85 75.7559M420.699 82.7916L412.343 90.1315M286.85 75.7559H239.563M353.195 97.7955L342.935 105.807M353.195 97.7955H403.618M412.343 90.1315L403.618 97.7955M403.618 97.7955L394.498 105.807M291.372 105.807L279.445 114.188M291.372 105.807H342.935M291.372 105.807H239.81M342.935 105.807L332.201 114.188M342.935 105.807H394.498M394.498 105.807L384.956 114.188M279.445 114.188H332.201M279.445 114.188H226.69M320.958 122.967L332.201 114.188M320.958 122.967L309.169 132.171M320.958 122.967H374.962M332.201 114.188H384.956M226.69 114.188H173.934M226.69 114.188L239.81 105.807M384.956 114.188L374.962 122.967M239.81 105.807H188.247M309.169 132.171L296.795 141.833M309.169 132.171H364.484M374.962 122.967L364.484 132.171M364.484 132.171L353.485 141.833M240.105 141.833L225.656 151.988M240.105 141.833H296.795M240.105 141.833H183.416M296.795 141.833L283.79 151.988M296.795 141.833H353.485M353.485 141.833L341.925 151.988M225.656 151.988H283.79M225.656 151.988H167.521M270.104 162.673L283.79 151.988M270.104 162.673L255.684 173.933M270.104 162.673H329.759M283.79 151.988H341.925M167.521 151.988H109.387M167.521 151.988L183.416 141.833M341.925 151.988L329.759 162.673M183.416 141.833H126.727M255.684 173.933L240.467 185.815M255.684 173.933H316.941M329.759 162.673L316.941 173.933M316.941 173.933L303.415 185.815M177.518 185.815L159.651 198.37M177.518 185.815H240.467M177.518 185.815H114.571M240.467 185.815L224.386 198.37M240.467 185.815H303.415M303.415 185.815L289.121 198.37M159.651 198.37H224.386M159.651 198.37H94.9166M207.366 211.66L224.386 198.37M207.366 211.66L189.322 225.749M207.366 211.66H273.992M224.386 198.37H289.121M94.9166 198.37H30.1817M94.9166 198.37L114.571 185.815M289.121 198.37L273.992 211.66M114.571 185.815H51.6222M189.322 225.749L170.157 240.713M189.322 225.749H257.953M273.992 211.66L257.953 225.749M257.953 225.749L240.917 240.713M99.3965 240.713L76.7399 256.635M99.3965 240.713H170.157M99.3965 240.713H28.6362M170.157 240.713L149.766 256.635M170.157 240.713H240.917M240.917 240.713L222.792 256.635M76.7399 256.635H149.766M76.7399 256.635H3.71386M128.025 273.61L149.766 256.635M128.025 273.61L104.797 291.746M128.025 273.61H203.466M149.766 256.635H222.792M3.71386 256.635L28.6362 240.713M3.71386 256.635H-1.56455M3.71386 256.635L-1.56455 260.007M222.792 256.635L203.466 273.61M28.6362 240.713H-1.56455M104.797 291.746L79.9236 311.167M104.797 291.746H182.819M203.466 273.61L182.819 291.746M182.819 291.746L160.709 311.167M-0.862951 311.167H79.9236M-0.862951 311.167H-1.56455M-0.862951 311.167L-1.56455 311.66M79.9236 311.167L53.2224 332.016M79.9236 311.167H160.709M160.709 311.167L136.976 332.016M24.4864 354.453L53.2224 332.016M24.4864 354.453H111.432M24.4864 354.453H-1.56455M24.4864 354.453L-1.56455 374.794M53.2224 332.016H136.976M53.2224 332.016H-1.56455M136.976 332.016L111.432 354.453M111.432 354.453L83.8645 378.669M83.8645 378.669L54.0209 404.884M83.8645 378.669H-1.56455M54.0209 404.884L21.6076 433.356M54.0209 404.884H-1.56455M21.6076 433.356H-1.56455M21.6076 433.356L-1.56455 453.71M239.175 28.4804L228.894 33.641M239.175 28.4804H279.734M239.175 28.4804H198.616M288.947 23.5001L297.844 18.6909M288.947 23.5001L279.734 28.4804M288.947 23.5001H328.797M297.844 18.6909H337.009M297.844 18.6909L306.44 14.0445M267.935 14.0445H306.44M267.935 14.0445L276.885 9.55193M267.935 14.0445H229.431M279.734 28.4804L270.187 33.641M279.734 28.4804H320.293M328.797 23.5001L337.009 18.6909M328.797 23.5001L320.293 28.4804M337.009 18.6909L344.944 14.0445M306.44 14.0445L307.493 13.474L314.75 9.55193M306.44 14.0445H344.944M320.293 28.4804L311.48 33.641M383.449 14.0445L390.481 9.55193M383.449 14.0445H344.944M344.944 14.0445L345.917 13.474L352.615 9.55193M228.894 33.641H270.187M228.894 33.641H187.601M260.288 38.9918L270.187 33.641M260.288 38.9918L250.018 44.5435M260.288 38.9918H302.344M270.187 33.641H311.48M187.601 33.641H146.308M187.601 33.641L198.616 28.4804M311.48 33.641L302.344 38.9918M198.616 28.4804H158.057M250.018 44.5435L239.354 50.3076M250.018 44.5435H292.862M302.344 38.9918L301.177 39.6739L292.862 44.5435M292.862 44.5435L283.019 50.3076M195.689 50.3076L183.757 56.2974M195.689 50.3076H239.354M195.689 50.3076H152.024M239.354 50.3076L228.274 56.2974M239.354 50.3076H283.019M283.019 50.3076L272.792 56.2974M183.757 56.2974H228.274M183.757 56.2974H139.239M216.753 62.5253L228.274 56.2974M216.753 62.5253L204.763 69.0063M216.753 62.5253H262.156M228.274 56.2974H272.792M139.239 56.2974H94.722M139.239 56.2974L152.024 50.3076M272.792 56.2974L262.156 62.5253M152.024 50.3076H108.359M204.763 69.0063L192.277 75.7559M204.763 69.0063H251.089M262.156 62.5253L251.089 69.0063M251.089 69.0063L239.563 75.7559M144.99 75.7559L130.974 82.7916M144.99 75.7559H192.277M144.99 75.7559H97.7036M192.277 75.7559L179.262 82.7916M192.277 75.7559H239.563M239.563 75.7559L227.549 82.7916M130.974 82.7916H179.262M130.974 82.7916H82.6862M165.683 90.1315L179.262 82.7916M165.683 90.1315L151.504 97.7955M165.683 90.1315H215.015M179.262 82.7916H227.549M82.6862 82.7916H34.3989M82.6862 82.7916L97.7036 75.7559M227.549 82.7916L215.015 90.1315M97.7036 75.7559H50.4177M151.504 97.7955L136.684 105.807M151.504 97.7955H201.927M215.015 90.1315L201.927 97.7955M201.927 97.7955L188.247 105.807M85.1211 105.807L68.4235 114.188M85.1211 105.807H136.684M85.1211 105.807H33.5592M136.684 105.807L121.179 114.188M136.684 105.807H188.247M188.247 105.807L173.934 114.188M68.4235 114.188H121.179M104.939 122.967L121.179 114.188M104.939 122.967L87.9115 132.171M104.939 122.967H158.944M121.179 114.188H173.934M173.934 114.188L158.944 122.967M33.5592 105.807H-1.56455M87.9115 132.171L70.0372 141.833M87.9115 132.171H143.226M158.944 122.967L143.226 132.171M143.226 132.171L126.727 141.833M13.3476 141.833H70.0372M13.3476 141.833H-1.56455M13.3476 141.833L-1.56455 149.318M70.0372 141.833L51.2516 151.988M70.0372 141.833H126.727M126.727 141.833L109.387 151.988M31.4838 162.673L51.2516 151.988M31.4838 162.673L10.654 173.933M31.4838 162.673H91.1391M31.4838 162.673H-1.56455M51.2516 151.988H109.387M51.2516 151.988H-1.56455M109.387 151.988L91.1391 162.673M-1.72879 149.401L-1.56455 149.318M10.654 173.933H71.9112M10.654 173.933H-1.56455M10.654 173.933L-1.56455 180.538M91.1391 162.673L71.9112 173.933M71.9112 173.933L51.6222 185.815M51.6222 185.815L30.1817 198.37M51.6222 185.815H-1.56455M7.48801 211.66L30.1817 198.37M7.48801 211.66H-1.56455M7.48801 211.66L-1.56455 216.961M30.1817 198.37H-1.56455M76.9395 28.4804L63.7212 33.641M76.9395 28.4804H117.498M76.9395 28.4804H36.3799M129.546 23.5001L141.18 18.6909M129.546 23.5001L117.498 28.4804M129.546 23.5001H169.396M141.18 18.6909H180.346M141.18 18.6909L152.421 14.0445M113.916 14.0445H152.421M113.916 14.0445L125.423 9.55193M113.916 14.0445H75.4116M117.498 28.4804L105.014 33.641M117.498 28.4804H158.057M169.396 23.5001L180.346 18.6909M169.396 23.5001L158.057 28.4804M180.346 18.6909L190.925 14.0445M152.421 14.0445H190.925M152.421 14.0445L163.289 9.55193M158.057 28.4804L146.308 33.641M229.431 14.0445L239.02 9.55193M229.431 14.0445H190.925M190.925 14.0445L201.154 9.55193M63.7212 33.641H105.014M63.7212 33.641H22.4279M92.0698 38.9918L105.014 33.641M92.0698 38.9918L78.6392 44.5435M92.0698 38.9918H134.124M105.014 33.641H146.308M22.4279 33.641L36.3799 28.4804M22.4279 33.641H-1.56455M146.308 33.641L134.124 38.9918M36.3799 28.4804H-1.56455M78.6392 44.5435L64.6939 50.3076M78.6392 44.5435H121.484M134.124 38.9918L121.484 44.5435M121.484 44.5435L108.359 50.3076M21.0289 50.3076L5.68726 56.2974M21.0289 50.3076H64.6939M21.0289 50.3076H-1.56455M64.6939 50.3076L50.2046 56.2974M64.6939 50.3076H108.359M108.359 50.3076L94.722 56.2974M35.1384 62.5253L50.2046 56.2974M35.1384 62.5253L19.4598 69.0063M35.1384 62.5253H80.5418M35.1384 62.5253H-1.56455M50.2046 56.2974H5.68726M50.2046 56.2974H94.722M5.68726 56.2974L-1.56455 59.1282M5.68726 56.2974H-1.56455M94.722 56.2974L80.5418 62.5253M19.4598 69.0063L3.13102 75.7559M19.4598 69.0063H65.7855M19.4598 69.0063H-1.56455M80.5418 62.5253L65.7855 69.0063M65.7855 69.0063L50.4177 75.7559M3.13102 75.7559H50.4177M3.13102 75.7559L-1.56455 77.6965M3.13102 75.7559H-1.56455M50.4177 75.7559L34.3989 82.7916M17.6869 90.1315L34.3989 82.7916M17.6869 90.1315L0.236192 97.7955M17.6869 90.1315H-1.56455M34.3989 82.7916H-1.56455M-1.81723 82.7916H-1.56455M0.236192 97.7955H-1.56455M0.236192 97.7955L-1.56455 98.5864M-2 98.7777L-1.56455 98.5864M9.9954 23.5001L23.682 18.6909M9.9954 23.5001H-1.56455M9.9954 23.5001L-1.56455 27.5615M23.682 18.6909L36.9071 14.0445M23.682 18.6909H-1.56455M75.4116 14.0445L87.5578 9.55193M75.4116 14.0445H36.9071M36.9071 14.0445L49.6926 9.55193M36.9071 14.0445H-1.56455M1337.12 9.55193H1374.98M1337.12 9.55193H1299.25M1365.7 5.20651L1367.99 6.27964L1374.98 9.55193M1365.7 5.20651H1402.95M1374.98 9.55193H1412.85M1402.95 5.20651L1405.39 6.27964L1406.62 6.81869L1412.85 9.55193M1412.85 9.55193H1450.71M1450.71 9.55193H1488.58M1299.25 9.55193H1261.38M1488.58 9.55193H1526.44M1526.44 9.55193L1514.69 5.20651M1526.44 9.55193H1564.31M1514.69 5.20651H1551.94M1185.65 9.55193H1223.52M1185.65 9.55193H1147.79M1216.72 5.20651L1218.4 6.27964L1219.24 6.81869L1223.52 9.55193M1216.72 5.20651H1253.96M1223.52 9.55193H1261.38M1253.96 5.20651L1261.38 9.55193M1147.79 9.55193H1109.92M1034.19 9.55193H1072.06M1034.19 9.55193H996.327M1067.73 5.20651L1068.26 5.74142L1068.8 6.27964L1069.34 6.81869L1072.06 9.55193M1067.73 5.20651H1104.98M1072.06 9.55193H1109.92M1104.98 5.20651L1109.92 9.55193M996.327 9.55193H958.461M882.73 9.55193H920.596M882.73 9.55193H844.865M918.741 5.20651L920.596 9.55193M918.741 5.20651H955.988M920.596 9.55193H958.461M955.988 5.20651L956.293 5.74142L956.599 6.27964L956.906 6.81869L958.461 9.55193M844.865 9.55193H807M731.27 9.55193H769.135M731.27 9.55193H693.404M769.753 5.20651L769.135 9.55193M769.753 5.20651H807M769.135 9.55193H807M807 5.20651V9.55193M693.404 9.55193H655.538M579.808 9.55193H617.673M579.808 9.55193H541.942M620.765 5.20651L620.002 6.27964L618.455 8.45153L617.673 9.55193M620.765 5.20651H658.012M617.673 9.55193H655.538M658.012 5.20651L657.707 5.74142L657.401 6.27964L657.094 6.81869L655.538 9.55193M541.942 9.55193H504.077M428.347 9.55193H466.212M428.347 9.55193H390.481M471.778 5.20651L470.403 6.27964L469.712 6.81869L466.212 9.55193M471.778 5.20651H509.025M466.212 9.55193H504.077M509.025 5.20651L508.415 5.74142L504.077 9.55193M390.481 9.55193H352.615M276.885 9.55193H314.75M276.885 9.55193H239.02M322.789 5.20651L320.804 6.27964L319.805 6.81869L314.75 9.55193M322.789 5.20651H360.036M314.75 9.55193H352.615M360.036 5.20651L359.122 5.74142L352.615 9.55193M239.02 9.55193H201.154M125.423 9.55193H163.289M125.423 9.55193H87.5578M173.801 5.20651L163.289 9.55193M173.801 5.20651H211.048M163.289 9.55193H201.154M211.048 5.20651L208.606 6.27964L207.376 6.81869L201.154 9.55193M87.5578 9.55193H49.6926M24.814 5.20651L11.8273 9.55193M24.814 5.20651H62.0611M24.814 5.20651H-1.56455M11.8273 9.55193H49.6926M11.8273 9.55193L-1.56455 14.0335M11.8273 9.55193H-1.56455M62.0611 5.20651L59.007 6.27964L49.6926 9.55193M1551.94 5.20651L1554.99 6.27964L1564.31 9.55193M1564.31 9.55193H1602.17M1602.17 9.55193L1615.56 14.0335M1602.17 9.55193H1615.56M1615.56 216.961V211.66M1615.56 216.961V225.749M1615.56 211.66V198.37M1615.56 225.749V228.375V240.713M1615.56 240.713V256.635M1615.56 114.188V105.807M1615.56 114.188V122.261M1615.56 5.20651V9.55193M1615.56 9.55193V14.0335M1615.56 14.0335L1615.6 14.0445H1615.56M1615.56 14.0335V14.0445M1615.56 14.0445V18.6909M1615.56 18.6909V23.5001M1615.56 23.5001V27.5615M1615.56 27.5615V28.4804M1615.56 28.4804V33.641M1615.56 33.641V38.9918M1615.56 38.9918V42.5139M1615.56 42.5139V44.5435M1615.56 44.5435V50.3076M1615.56 50.3076V56.2974M1615.56 56.2974V59.1282M1615.56 59.1282V62.5253M1615.56 62.5253V69.0063M1615.56 69.0063V75.7559M1615.56 75.7559V77.6965M1615.56 77.6965V82.7916M1615.56 82.7916V90.1315M1615.56 90.1315V97.7955M1615.56 97.7955V98.5864M1615.56 98.5864V105.807M1615.56 122.967V132.171M1615.56 122.967V122.261M1615.56 132.171V141.833M1615.56 141.833V149.318M1615.56 149.318V151.988M1615.56 151.988V162.673M1615.56 162.673V173.933M1615.56 173.933V180.538M1615.56 180.538V185.815M1615.56 185.815V198.37M1615.56 256.635V260.006M1615.56 260.006V273.61M1615.56 273.61V291.746M1615.56 291.746V311.167M1615.56 311.167V311.66M1615.56 311.66V332.016M1615.56 332.016V354.453M1615.56 354.453V374.794M1615.56 374.794V378.669M1615.56 378.669V404.884M1615.56 404.884V433.356M1615.56 433.356V453.71M1615.56 453.71V464.389M1615.56 464.389V498.345M1615.56 498.345V535.659M1615.56 535.659V555.174M1615.56 555.174V576.853M1615.56 576.853V577H-1.56455V576.853M-1.56455 122.967V132.171M-1.56455 122.967V122.261M-1.56455 122.261V114.188M-1.56455 114.188V105.807M-1.56455 105.807V98.5864M-1.56455 98.5864V97.7955M-1.56455 97.7955V90.1315M-1.56455 90.1315V82.7916M-1.56455 82.7916V77.6965M-1.56455 77.6965V75.7559M-1.56455 75.7559V69.0063M-1.56455 69.0063V62.5253M-1.56455 62.5253V59.1282M-1.56455 59.1282V56.2974M-1.56455 56.2974V50.3076M-1.56455 50.3076V44.5435M-1.56455 44.5435V42.5139M-1.56455 42.5139V38.9918M-1.56455 38.9918V33.641M-1.56455 33.641V28.4804M-1.56455 28.4804V27.5615M-1.56455 27.5615V23.5001M-1.56455 23.5001V18.6909M-1.56455 18.6909V14.0445M-1.56455 14.0445H-1.5974L-1.56455 14.0335M-1.56455 14.0445V14.0335M-1.56455 14.0335V9.55193M-1.56455 9.55193V5.20651M-1.56455 576.853V555.174M-1.56455 555.174V535.659M-1.56455 535.659V498.346M-1.56455 498.346V464.389M-1.56455 464.389V453.71M-1.56455 453.71V433.356M-1.56455 433.356V404.884M-1.56455 404.884V378.669M-1.56455 378.669V374.794M-1.56455 374.794V354.453M-1.56455 354.453V332.016M-1.56455 332.016V311.66M-1.56455 311.66V311.167M-1.56455 311.167V291.746M-1.56455 291.746V273.61M-1.56455 273.61V260.007M-1.56455 260.007V256.635M-1.56455 256.635V240.713M-1.56455 240.713V225.749M-1.56455 225.749V216.961M-1.56455 216.961V211.66M-1.56455 211.66V198.37M-1.56455 198.37V185.815M-1.56455 185.815V180.538M-1.56455 180.538V173.933M-1.56455 173.933V162.673M-1.56455 162.673V151.988M-1.56455 151.988V149.318M-1.56455 149.318V141.833M-1.56455 141.833V132.171" stroke="url(#paint0_radial_2_299)" stroke-miterlimit="10" stroke-linecap="round" stroke-linejoin="round"/>
<defs>
<radialGradient id="paint0_radial_2_299" cx="0" cy="0" r="1" gradientUnits="userSpaceOnUse" gradientTransform="translate(807 289) rotate(90) scale(208.793 584.162)">
<stop stop-color="white" stop-opacity="0.2"/>
<stop offset="1" stop-color="white" stop-opacity="0"/>
</radialGradient>
</defs>
</svg>
