<svg width="862" height="960" viewBox="0 0 862 960" fill="none" xmlns="http://www.w3.org/2000/svg">
<path d="M861.592 -11V154.497L806.925 99.8307V-11H805.922L806.093 -10.8293V98.9941L751.427 44.3279V-11H750.594V44.3279L695.927 98.9941V-11H362.092V44.3279L307.426 98.9941V-11H306.422L251.926 43.4954V-11H251.094V44.3279L196.427 98.9941V-11H-137V155.916H28.4982L-26.1683 210.582H-137V211.586L-136.829 211.415H-27.005L-81.6716 266.081H-137V266.913H-81.6716L-27.005 321.58H-137V322.412H-27.005L-81.6716 377.078H-137V377.911H-82.5041L-137 432.41V433.413H-27.005L-81.6716 488.08H-137V987.996H196.419V878.002L251.086 932.668V987.996H251.918V932.668L306.585 878.002V987.825L306.414 987.996H307.417V877.169L362.084 822.503V988H695.919V932.672L696.09 932.501L695.919 932.331V878.006L750.586 932.672V988H751.418V933.505L805.914 988H806.917V878.006L861.584 932.672V988H862V488.084H696.502L751.168 433.418H861.996V432.414L861.825 432.585H752.001L806.667 377.919H861.996V377.087H806.667L752.001 322.42H861.996V321.588H752.001L806.667 266.922H861.996V266.089H807.5L861.996 211.594V210.591H752.001L806.667 155.925H861.996V-11H861.58H861.592ZM751.006 45.0897L806.089 100.172V155.084H695.919V100.172L751.002 45.0897H751.006ZM806.921 101.005L861.001 155.084H806.921V101.005ZM473.677 932.085L419.011 877.419H528.835L583.501 932.085H473.677ZM252.509 821.084L307.176 766.418H417.833L472.499 821.084H252.509ZM140.329 932.085H30.5046L85.1711 877.419H194.995L140.329 932.085ZM-81.0847 599.672L-26.4181 545.006V654.829L-81.0847 709.495V599.672ZM28.494 488.916L-25.5856 542.995V488.916H28.494ZM29.9176 377.328V266.672L84.5842 212.006V432.831L29.9176 487.497V377.673L30.0883 377.503L29.9176 377.332V377.328ZM195 99.5851H85.1753L30.5087 44.919H140.333L195 99.5851ZM418.178 44.919H528.002L473.336 99.5851H363.512L418.178 44.919ZM695.336 544.419L750.003 599.085H640.179L585.512 544.419H695.336ZM639.421 599.501L584.338 654.584H529.426V544.415H584.338L639.421 599.497V599.501ZM695.095 877.173V931.498L585.516 821.92H695.095V876.832L694.924 877.003L695.095 877.173ZM473.681 821.084L418.599 766.001L473.681 710.919H528.594V821.088H473.681V821.084ZM417.837 765.585H308.012L362.679 710.919H472.503L417.837 765.585ZM-25.8229 876.587L-80.4894 821.92H139.501L84.834 876.587H-25.8229ZM29.0893 711.506V821.084H-80.4894L29.0893 711.506ZM362.92 101.005L417 155.084H362.92V101.005ZM584.334 100.418L639.001 155.084H419.011L473.677 100.418H584.334ZM695.091 266.672V377.328L640.424 431.994V211.169L695.091 156.503V266.327L694.92 266.497L695.091 266.668V266.672ZM474.51 710.082L528.589 656.003V710.082H474.51ZM252.509 710.082L307.176 655.416H362.92H528.002L473.336 710.082H252.509ZM140.92 821.084V767.005L195 821.084H140.92ZM195.587 821.916V875.995L141.507 821.916H195.587ZM140.087 821.084H29.9176V766.172L85.0005 711.09L140.083 766.172V821.084H140.087ZM140.92 266.672L195.587 212.006V321.584V431.994L140.92 377.328V266.672ZM251.506 156.087L251.677 155.916H417.833L472.499 210.582H251.673L197.006 155.916H251.331L251.502 156.087H251.506ZM584.925 487.493V377.669L639.592 323.003V432.827L584.925 487.493ZM84.5884 710.324L29.9218 764.99V544.998L84.5884 599.664V710.32V710.324ZM84.0014 488.912L29.9218 542.991V488.912H84.0014ZM30.0966 543.994L84.5925 489.499V598.49L30.0966 543.994ZM196.427 488.08V378.502L251.094 433.168V543.824L196.427 598.49V488.08ZM250.507 210.578H196.427V156.499L250.507 210.578ZM196.427 211.411H251.34L306.422 266.493L251.34 321.575H196.427V211.407V211.411ZM584.097 377.324L529.43 431.99V266.668L529.601 266.497L529.43 266.327V212.002L584.097 266.668V377.324ZM584.097 487.493L529.601 432.997L584.097 378.502V487.493ZM528.598 653.993L473.931 599.327V378.502L528.427 432.997L528.598 433.168V488.08V653.988V653.993ZM307.184 266.913H417.841L472.508 321.58H418.186L418.016 321.409L417.845 321.58H362.1H252.522L307.188 266.913H307.184ZM473.099 487.493L418.432 432.827V323.003L473.099 377.669V487.493ZM307.43 377.669L362.096 323.003V377.324L361.926 377.494L362.096 377.665V488.492V543.82L307.43 598.486V377.661V377.669ZM361.509 322.412L307.43 376.491V322.412H361.509ZM362.096 545.002V654.58H252.518L362.096 545.002ZM362.929 322.412H417.008L362.929 376.491V322.412ZM417.595 322.999V431.99L363.099 377.494L417.595 322.999ZM419.019 322.412H473.34L473.511 322.583L473.681 322.412H528.594V431.99L419.015 322.412H419.019ZM474.518 321.58L528.598 267.5V321.58H474.518ZM473.511 321.409L419.015 266.913H528.007L473.511 321.409ZM306.593 322.412V377.324L251.51 432.406L196.427 377.324V322.412H306.597H306.593ZM251.926 433.168L306.593 378.502V488.325L251.926 542.991V433.168ZM306.593 489.499V599.322L251.926 653.988V544.165L306.593 489.499ZM251.094 653.988L196.598 599.493L251.094 544.998V653.988ZM250.507 654.575H196.427V600.496L250.507 654.575ZM362.929 488.492V378.498L417.595 433.164V543.82L362.929 598.486V488.492ZM418.428 433.996L473.094 488.662V598.486L418.428 543.82V433.996ZM528.598 155.908V265.486L419.019 155.908H528.598ZM528.011 266.077H418.186L363.52 211.411H473.344L528.011 266.077ZM362.342 211.411L417.008 266.077H307.184L252.518 211.411H362.342ZM362.929 599.668L418.012 544.586L473.094 599.668V654.58H362.925V599.668H362.929ZM473.931 600.5L528.011 654.58H473.931V600.5ZM529.43 434L583.51 488.08H529.43V434ZM639.6 321.821L584.933 376.487V266.664L639.6 211.998V321.821ZM584.517 265.906L529.434 210.824V155.912H639.604V210.824L584.521 265.906H584.517ZM195.599 209.991L141.519 155.912H195.599V209.991ZM140.932 156.503L195.428 210.999L140.932 265.494V156.503ZM85.4334 710.324V600.5L140.1 655.167V764.99L85.4334 710.324ZM140.1 653.993L85.4334 599.327V489.503L140.1 544.169V653.993ZM86.0203 488.912H195.599V598.49L86.0203 488.912ZM251.344 655.412L251.514 655.583L251.685 655.412H306.006L196.427 764.99V655.412H251.34H251.344ZM585.524 488.08L695.103 378.502V488.08H585.524ZM640.437 209.991V155.912H694.516L640.437 209.991ZM418.02 154.909L363.524 100.413H472.516L418.02 154.909ZM141.524 155.08L195.603 101V155.08H141.524ZM140.52 154.909L86.0244 100.413H195.016L140.52 154.909ZM139.517 155.912L29.9384 265.49V155.912H139.517ZM140.104 156.499V266.322L85.4375 320.988V211.165L140.104 156.499ZM85.4375 322.167L140.104 267.5V377.324L85.4375 431.99V322.167ZM140.52 378.081L195.603 433.164V488.075H85.4334V433.164L140.516 378.081H140.52ZM84.605 488.075H30.5254L84.605 433.996V488.075ZM140.52 822.079L195.016 876.574H86.0244L140.52 822.079ZM140.937 765.818V544.998L195.433 599.493L195.603 599.664V655.408V765.818L195.433 765.989L195.603 766.16V820.484L140.937 765.818ZM197.027 765.573L251.693 710.907H361.518L306.851 765.573H197.027ZM306.019 766.405L251.523 820.901L197.027 766.405H306.019ZM529.443 821.071V711.493L639.021 821.071H529.443ZM530.03 710.902H639.854L694.52 765.568H584.696L530.03 710.902ZM530.03 710.07L584.525 655.574L639.021 710.07H530.03ZM529.443 709.483V655.404H583.522L529.443 709.483ZM529.443 543.57V489.491L583.522 543.57H529.443ZM695.091 44.0824H641.011L695.091 -9.99684V44.0824ZM695.091 44.9149V155.084H640.179L585.096 100.001L640.179 44.919H695.091V44.9149ZM584.334 99.581H474.51L529.176 44.9149H639.001L584.334 99.581ZM196.419 155.08V101L250.499 155.08H196.419ZM29.3307 44.9149L83.9973 99.581H-25.827L-80.4936 44.9149H29.3307ZM-25.827 100.413H84.8298L139.496 155.08H-80.4936L-25.827 100.413ZM29.0851 489.503V543.828L28.9145 543.999L29.0851 544.169V710.324L-25.5814 764.99V544.165L29.0851 489.499V489.503ZM-26.4139 656.003V765.827L-81.0805 820.493V710.669L-26.4139 656.003ZM-81.913 820.493L-136.413 766.001L-81.9172 711.506V820.497L-81.913 820.493ZM-26.5846 876.999L-81.6674 932.081H-136.584V821.912H-81.6716L-26.5888 876.994L-26.5846 876.999ZM-25.8229 877.415H84.0014L29.3349 932.081H-80.4936L-25.827 877.415H-25.8229ZM196.423 767.005L250.503 821.084H196.423V767.005ZM362.925 822.503L417.004 876.582H362.925V822.503ZM363.512 821.916H528.594H584.338L639.005 876.582H418.182L363.516 821.916H363.512ZM530.013 877.415H639.837L694.504 932.081H584.679L530.013 877.415ZM694.504 932.913L640.008 987.409L585.512 932.913H694.504ZM751.181 821.08L751.01 820.909L750.839 821.08H640.183L585.516 766.413H806.343L861.009 821.08H751.185H751.181ZM695.682 765.581L641.015 710.915H750.839L805.506 765.581H695.682ZM750.839 710.082H640.183L585.516 655.416H805.506L750.839 710.082ZM585.516 654.584L640.183 599.918H750.839L805.506 654.584H585.512H585.516ZM752.018 599.918H861.009L806.513 654.413L752.018 599.918ZM751.185 599.085L696.518 544.419H806.343L861.009 599.085H751.185ZM584.684 543.586L530.017 488.92H584.342L584.513 489.091L584.684 488.92H750.839L805.506 543.586H584.684ZM639.841 44.0865H419.015L473.677 -10.5838H694.504L639.837 44.0824L639.841 44.0865ZM472.499 -10.5838L362.92 98.9941V-10.5838H472.499ZM362.088 99.8266L361.917 99.9972L362.088 100.168V155.08H252.509L362.088 45.5018V99.8266ZM306.589 -9.99684V99.8266L251.922 154.493V44.6734L306.589 -9.99684ZM251.09 45.5018V154.493L196.594 99.9972L251.09 45.5018ZM195.587 -10.5838V98.9941L86.0078 -10.5838H195.587ZM84.8298 -10.5838L139.496 44.0824H-81.3261L-135.997 -10.5838H84.8256H84.8298ZM-82.5041 44.0824H-136.584V-9.99684L-82.5041 44.0824ZM-136.584 44.9149H-81.6716L-26.5888 99.9972L-81.6716 155.08H-136.584V44.9149ZM29.0851 156.503V210.582H-24.9945L29.0851 156.503ZM-25.827 211.415H29.0851V321.584H-25.827L-25.9977 321.413L-80.9098 266.501L-25.827 211.419V211.415ZM29.0851 322.416V376.495L-24.9945 322.416H29.0851ZM-25.9977 322.587L28.4982 377.082H-80.4936L-25.9977 322.587ZM-135.997 432.585L-81.3303 377.919H28.494L-26.1725 432.585H-135.997ZM29.0851 378.506V488.084H-80.4936L29.0851 378.506ZM-26.4139 488.916V543.828L-81.4968 598.91L-136.584 543.828V488.916H-26.4139ZM-136.584 545.006L-81.9172 599.672V710.328L-136.584 764.994V545.002V545.006ZM-82.5041 821.084H-136.584V767.005L-82.5041 821.084ZM-136.584 932.918H-82.5041L-136.584 986.997V932.918ZM-81.3261 932.918H139.496L84.8298 987.584H-135.997L-81.3303 932.918H-81.3261ZM86.0078 987.584L195.587 878.006V987.584H86.0078ZM251.506 931.91L196.594 876.999L196.423 876.828V821.916H251.335L251.506 822.087L251.677 821.916H306.589V876.828L251.506 931.91ZM307.421 821.916H361.501L307.421 875.995V821.916ZM362.92 877.415H417.833L472.915 932.497L417.833 987.58H362.92V877.411V877.415ZM419.011 987.584L473.677 932.918H584.334L639.001 987.584H419.006H419.011ZM641.011 987.584L695.091 933.505V987.584H641.011ZM695.923 821.916H750.003L695.923 875.995V821.916ZM696.094 876.999L750.59 822.503V931.494L696.094 876.999ZM806.089 986.993L751.422 932.327V822.503L806.089 877.169V986.993ZM861.588 931.494L752.009 821.916H861.588V931.494ZM861.588 820.497L807.508 766.418H861.588V820.497ZM806.676 765.585L751.593 710.503L806.676 655.42H861.588V765.589H806.676V765.585ZM861.588 654.584H807.508L861.588 600.505V654.584ZM752.009 488.916H861.588V598.494L752.009 488.916ZM695.919 487.493V433.413H749.999L695.919 487.493ZM750.831 432.581H695.919V322.412H750.831L751.002 322.583L805.914 377.494L750.831 432.577V432.581ZM695.919 321.58V267.5L749.999 321.58H695.919ZM751.002 321.409L696.506 266.913H805.498L751.002 321.409ZM860.997 211.415L806.33 266.081H696.506L751.173 211.415H860.997ZM695.915 265.494V155.916H805.494L695.915 265.494Z" fill="url(#paint0_radial_2_297)"/>
<defs>
<radialGradient id="paint0_radial_2_297" cx="0" cy="0" r="1" gradientUnits="userSpaceOnUse" gradientTransform="translate(347.711 488.5) scale(489.163 489.159)">
<stop stop-color="white"/>
<stop offset="1" stop-opacity="0"/>
</radialGradient>
</defs>
</svg>
