<svg width="267" height="319" viewBox="0 0 267 319" fill="none" xmlns="http://www.w3.org/2000/svg">
<path d="M133.5 252.469C140.545 252.469 147.301 249.67 152.283 244.689C157.264 239.707 160.062 232.951 160.062 225.906C160.062 218.861 157.264 212.105 152.283 207.124C147.301 202.142 140.545 199.344 133.5 199.344C126.455 199.344 119.699 202.142 114.717 207.124C109.736 212.105 106.938 218.861 106.938 225.906C106.938 232.951 109.736 239.707 114.717 244.689C119.699 249.67 126.455 252.469 133.5 252.469Z" fill="white"/>
<path fill-rule="evenodd" clip-rule="evenodd" d="M53.8125 79.8125V132.938C39.7229 132.938 26.2103 138.535 16.2474 148.497C6.28458 158.46 0.6875 171.973 0.6875 186.062V265.75C0.6875 279.84 6.28458 293.352 16.2474 303.315C26.2103 313.278 39.7229 318.875 53.8125 318.875H213.188C227.277 318.875 240.79 313.278 250.753 303.315C260.715 293.352 266.312 279.84 266.312 265.75V186.062C266.312 171.973 260.715 158.46 250.753 148.497C240.79 138.535 227.277 132.938 213.188 132.938V79.8125C213.188 58.6781 204.792 38.4092 189.848 23.4649C174.903 8.52063 154.634 0.125 133.5 0.125C112.366 0.125 92.0967 8.52063 77.1524 23.4649C62.2081 38.4092 53.8125 58.6781 53.8125 79.8125ZM133.5 26.6875C119.41 26.6875 105.898 32.2846 95.9349 42.2474C85.9721 52.2103 80.375 65.7229 80.375 79.8125V132.938H186.625V79.8125C186.625 65.7229 181.028 52.2103 171.065 42.2474C161.102 32.2846 147.59 26.6875 133.5 26.6875ZM53.8125 159.5H213.188C220.232 159.5 226.989 162.299 231.97 167.28C236.951 172.261 239.75 179.018 239.75 186.062V265.75C239.75 272.795 236.951 279.551 231.97 284.533C226.989 289.514 220.232 292.312 213.188 292.312H53.8125C46.7677 292.312 40.0114 289.514 35.03 284.533C30.0485 279.551 27.25 272.795 27.25 265.75V186.062C27.25 179.018 30.0485 172.261 35.03 167.28C40.0114 162.299 46.7677 159.5 53.8125 159.5Z" fill="white"/>
</svg>
