<svg width="259" height="311" viewBox="0 0 259 311" fill="none" xmlns="http://www.w3.org/2000/svg">
<path d="M129.5 245.844C136.346 245.844 142.911 243.124 147.752 238.283C152.593 233.443 155.312 226.877 155.312 220.031C155.312 213.185 152.593 206.62 147.752 201.779C142.911 196.938 136.346 194.219 129.5 194.219C122.654 194.219 116.089 196.938 111.248 201.779C106.407 206.62 103.688 213.185 103.688 220.031C103.688 226.877 106.407 233.443 111.248 238.283C116.089 243.124 122.654 245.844 129.5 245.844Z" fill="white"/>
<path fill-rule="evenodd" clip-rule="evenodd" d="M129.5 26.4375C115.808 26.4375 102.677 31.8765 92.9956 41.5581C83.314 51.2397 77.875 64.3707 77.875 78.0625V129.688H206.938C220.629 129.688 233.76 135.127 243.442 144.808C253.123 154.49 258.562 167.621 258.562 181.312V258.75C258.562 272.442 253.123 285.573 243.442 295.254C233.76 304.936 220.629 310.375 206.938 310.375H52.0625C38.3707 310.375 25.2397 304.936 15.5581 295.254C5.87654 285.573 0.4375 272.442 0.4375 258.75V181.312C0.4375 167.621 5.87654 154.49 15.5581 144.808C25.2397 135.127 38.3707 129.688 52.0625 129.688V78.0625C52.0625 57.5248 60.2211 37.8283 74.7434 23.3059C89.2658 8.78357 108.962 0.625 129.5 0.625C150.038 0.625 169.734 8.78357 184.257 23.3059C198.779 37.8283 206.937 57.5248 206.938 78.0625C206.938 81.4855 205.578 84.7682 203.157 87.1886C200.737 89.609 197.454 90.9688 194.031 90.9688C190.608 90.9688 187.326 89.609 184.905 87.1886C182.485 84.7682 181.125 81.4855 181.125 78.0625C181.125 64.3707 175.686 51.2397 166.004 41.5581C156.323 31.8765 143.192 26.4375 129.5 26.4375ZM52.0625 155.5H206.938C213.783 155.5 220.349 158.22 225.19 163.06C230.03 167.901 232.75 174.467 232.75 181.312V258.75C232.75 265.596 230.03 272.161 225.19 277.002C220.349 281.843 213.783 284.562 206.938 284.562H52.0625C45.2166 284.562 38.6511 281.843 33.8103 277.002C28.9695 272.161 26.25 265.596 26.25 258.75V181.312C26.25 174.467 28.9695 167.901 33.8103 163.06C38.6511 158.22 45.2166 155.5 52.0625 155.5Z" fill="white"/>
</svg>
